<svg width="509.04617" height="507.58297" xmlns="http://www.w3.org/2000/svg" data-name="Layer 1">

 <g>
  <title>Layer 1</title>
  <path id="svg_1" fill="#f2f2f2" d="m504.16994,454.21298c-6.29981,13.08 -17.90967,22.81 -30.08008,30.72a189.91394,189.91394 0 0 1 -42.65967,20.65c-2.06006,0.71 -4.14014,1.37 -6.23,2l-84.51023,0c-0.58985,-0.64 -1.14991,-1.31 -1.67969,-2c-5.66016,-7.25 -8.72022,-16.54 -7.61035,-25.64c1.43017,-11.69 10.31006,-22.43 21.81006,-24.91c11.51025,-2.49 24.62988,4.38 28.12988,15.63c1.92041,-21.68 4.14013,-44.26 15.66015,-62.72c10.44,-16.71 28.51026,-28.67 48.08985,-30.81a60.558,60.558 0 0 1 33.48,6.13c0.95019,0.48 1.89014,0.98 2.81006,1.5a56.01477,56.01477 0 0 1 16.14013,13.77c12.20994,15.45997 15.20018,37.93 6.64989,55.68z"/>
  <path id="svg_2" fill="#fff" d="m480.76027,386.13296a317.0801,317.0801 0 0 0 -90.56006,119.45c-0.29,0.66 -0.58008,1.33 -0.86035,2l-3.98,0c0.28027,-0.67 0.56006,-1.34 0.8501,-2c3.85009,-9 8.10009,-17.84 12.77,-26.45a321.86119,321.86119 0 0 1 34.91016,-51.66a316.96987,316.96987 0 0 1 44.25977,-43.95a1.92937,1.92937 0 0 1 0.41992,-0.26a2.03244,2.03244 0 0 1 2.81006,1.5a1.47782,1.47782 0 0 1 -0.6196,1.37z"/>
  <path id="svg_3" fill="#ffb8b8" d="m167.21423,293.58696a9.49736,9.49736 0 0 0 -1.2033,-14.51328l-4.79626,-31.61935l-19.70117,6.20064l10.793,28.20962a9.54884,9.54884 0 0 0 14.90777,11.72237l-0.00004,0z"/>
  <path id="svg_4" fill="#c4e69f" d="m146.91862,278.71136l-12.153,-56.75662a32.50067,32.50067 0 0 1 9.28145,-30.39262c15.55594,-14.99054 35.549,-33.88518 42.455,-38.77257a35.60558,35.60558 0 0 1 22.27647,-6.57547l0.1667,0.01833l10.454,9.87947l-22.773,37.48872l-34.57167,21.66118l3.84723,55.62884l-18.98318,7.82074z"/>
  <rect id="svg_5" fill="#ccc" rx="4" height="8" width="59" y="201.58297" x="134.47998"/>
  <rect id="svg_6" fill="#ccc" rx="4" height="8" width="59" y="288.58297" x="134.47998"/>
  <path id="svg_7" fill="#ccc" d="m164.47999,506.58298a2.00014,2.00014 0 0 1 -1.99218,-1.82325l-25.4961,-299a2,2 0 1 1 3.98438,-0.35351l23.4751,276.25146l22.80791,-276.24658a2.00007,2.00007 0 1 1 3.98535,0.34375l-24.77173,299a2.00031,2.00031 0 0 1 -1.99023,1.82813l-0.0025,0z"/>
  <circle id="svg_8" fill="#ffb8b8" r="26.2388" cy="108.00686" cx="221.71456"/>
  <polygon id="svg_11" fill="#ffb8b8" points="234.305 494.332 221.208 494.332 214.975 443.814 234.305 443.814 234.305 494.332"/>
  <path id="svg_12" fill="#2f2e41" d="m196.44923,505.99411l40.16287,0l0,-14.90381l-25.35378,0a14.826,14.826 0 0 0 -14.80909,14.80908l0,0.09473z"/>
  <path id="svg_13" fill="#2f2e41" d="m233.92196,477.93828l-4.42041,-0.65966c-13.407,-1.99756 -14.20972,-2.11719 -16.33814,-3.05176c-1.08691,-0.47754 -1.16333,-7.69336 -0.51074,-48.25586c0.47876,-29.77441 1.075,-66.82959 -0.08252,-86.72266a3.49939,3.49939 0 0 0 -6.70312,-1.18066c-79.63013,108.00104 -31.41358,-64.02632 -28.12476,-81.09224a4.50168,4.50168 0 0 1 5.30518,-3.57177c9.67382,1.94922 15.55908,4.01709 25.11889,6.0166c10.31543,2.15771 20.98218,4.38916 31.38648,6.47168l0,0a4.46279,4.46279 0 0 1 2.61914,1.60547c2.57446,3.25146 6.39184,5.07666 10.43359,7.00879c2.72486,1.30273 -3.44971,1.18533 -1.07666,3.064c9.60987,7.60739 -4.20947,162.08759 -12.55957,196.97754a4.51512,4.51512 0 0 1 -5.04736,3.39062l0,-0.00009z"/>
  <path id="svg_14" fill="#2f2e41" d="m232.8983,130.96659c-1.53189,-6.5001 6.21217,-20.48653 4.68028,-26.98663c-1.03742,-4.402 -11.38856,-1.4096 -13.8042,-5.233s-6.46185,-6.92092 -10.98412,-6.97167c-5.198,-0.05833 -10.31284,3.79748 -15.23684,2.131c-4.97869,-1.685 -6.57,-8.50289 -4.36887,-13.27591s6.94276,-7.81448 11.62747,-10.19775c7.97753,-4.05846 17.26629,-7.02216 25.80456,-4.337c5.16141,1.62317 9.477,5.14031 13.65329,8.58027c3.80691,3.1357 7.67786,6.34249 10.3391,10.495c5.21345,8.13482 4.8989,19.09552 0.44362,27.66907s-12.57337,14.86516 -21.51861,18.51726"/>
  <path id="svg_15" fill="#c4e69f" d="m168.4701,282.23321c2.832,-4.731 7.1316,-26.89746 12.43384,-64.10352c3.60987,-25.39893 6.75513,-51.206 8.31568,-64.38867a6.33875,6.33875 0 0 1 3.55957,-5.00147q1.519,-0.73315 3.02,-1.38769c12.92309,-5.6211 26.01977,-7.4834 38.92407,-5.53613a70.61872,70.61872 0 0 1 34.91894,15.91113l0.11743,0.11084l0.03028,0.1582c0.05615,0.293 5.47583,29.498 -5.625,49.22949c-10.94824,19.46875 -11.07593,71.02637 -11.07593,71.54493l0,0.66259l-0.63745,-0.18164c-17.032,-4.8667 -82.825,3.64746 -83.48779,3.73438l-1.02442,0.13379l0.53078,-0.88623z"/>
  <rect id="svg_16" fill="#ccc" rx="4" height="8" width="59" y="214.58297" x="212.47998"/>
  <rect id="svg_17" fill="#ccc" rx="4" height="8" width="59" y="301.58297" x="212.47998"/>
  <path id="svg_18" fill="#ccc" d="m242.47999,507.58298a2.00014,2.00014 0 0 1 -1.99218,-1.82325l-25.4961,-287a2,2 0 1 1 3.98438,-0.35351l23.4751,264.25146l22.80791,-264.24658a2.00007,2.00007 0 0 1 3.98535,0.34375l-24.77173,287a2.00031,2.00031 0 0 1 -1.99023,1.82813l-0.0025,0z"/>
  <path id="svg_19" fill="#ffb8b8" d="m226.01296,302.84996a9.49736,9.49736 0 0 1 8.89632,-11.52991l21.20756,-23.938l13.16967,15.9105l-24.389,17.81707a9.54884,9.54884 0 0 1 -18.88457,1.74031l0.00002,0.00003z"/>
  <path id="svg_20" fill="#c4e69f" d="m238.36068,286.18877l33.457,-44.60937l-17.25244,-36.96973l1.25268,-43.8457l14.14429,-2.61328l0.1499,0.07519a35.60551,35.60551 0 0 1 15.12799,17.62451c3.14185,7.85547 9.65894,34.58106 14.57251,55.61817a32.50066,32.50066 0 0 1 -8.7229,30.55761l-41.04248,41.043l-11.68655,-16.8804z"/>
  <path id="svg_22" fill="#3f3d56" d="m496.00001,506.58298a0.99651,0.99651 0 0 1 -1,1l-494,0a1,1 0 0 1 0,-2l494,0a0.9965,0.9965 0 0 1 1,1z"/>
  <path id="svg_29" fill="#f2f2f2" d="m384.33986,477.98711l0,-455.80395c0,-6.155 0.11713,-12.32315 0,-18.4774c-0.00512,-0.26907 0,-0.53868 0,-0.80782c0,-3.86072 -6,-3.86711 -6,0l0,455.804c0,6.155 -0.11713,12.32315 0,18.4774c0.00512,0.26907 0,0.53868 0,0.80782c0,3.86072 6,3.86711 6,0l0,-0.00005z"/>
  <path id="svg_30" fill="#f2f2f2" d="m417.5231,130.29149l-72,0a6.50753,6.50753 0 0 1 -6.5,-6.5l0,-87.5a6.50753,6.50753 0 0 1 6.5,-6.5l72,0a6.50753,6.50753 0 0 1 6.5,6.5l0,87.5a6.50753,6.50753 0 0 1 -6.5,6.5z"/>
 </g>
</svg>