<?xml version="1.0" encoding="UTF-8" standalone="no"?>
<svg
   xmlns:dc="http://purl.org/dc/elements/1.1/"
   xmlns:cc="http://creativecommons.org/ns#"
   xmlns:rdf="http://www.w3.org/1999/02/22-rdf-syntax-ns#"
   xmlns:svg="http://www.w3.org/2000/svg"
   xmlns="http://www.w3.org/2000/svg"
   xmlns:sodipodi="http://sodipodi.sourceforge.net/DTD/sodipodi-0.dtd"
   xmlns:inkscape="http://www.inkscape.org/namespaces/inkscape"
   version="1.1"
   id="svg2"
   xml:space="preserve"
   width="793.70667"
   height="1133.8533"
   viewBox="0 0 793.70667 1133.8533"
   sodipodi:docname="PATY222.ai"><metadata
     id="metadata8"><rdf:RDF><cc:Work
         rdf:about=""><dc:format>image/svg+xml</dc:format><dc:type
           rdf:resource="http://purl.org/dc/dcmitype/StillImage" /></cc:Work></rdf:RDF></metadata><defs
     id="defs6"><clipPath
       clipPathUnits="userSpaceOnUse"
       id="clipPath18"><path
         d="M 0,850.39 H 595.28 V 0 H 0 Z"
         id="path16" /></clipPath><clipPath
       clipPathUnits="userSpaceOnUse"
       id="clipPath46"><path
         d="M 0,850.39 H 595.28 V 0 H 0 Z"
         id="path44" /></clipPath><clipPath
       clipPathUnits="userSpaceOnUse"
       id="clipPath122"><path
         d="M 0,850.39 H 595.28 V 0 H 0 Z"
         id="path120" /></clipPath><clipPath
       clipPathUnits="userSpaceOnUse"
       id="clipPath206"><path
         d="M 0,850.39 H 595.28 V 0 H 0 Z"
         id="path204" /></clipPath><clipPath
       clipPathUnits="userSpaceOnUse"
       id="clipPath238"><path
         d="M 0,850.39 H 595.28 V 0 H 0 Z"
         id="path236" /></clipPath><clipPath
       clipPathUnits="userSpaceOnUse"
       id="clipPath322"><path
         d="M 0,850.39 H 595.28 V 0 H 0 Z"
         id="path320" /></clipPath><clipPath
       clipPathUnits="userSpaceOnUse"
       id="clipPath354"><path
         d="M 0,850.39 H 595.28 V 0 H 0 Z"
         id="path352" /></clipPath></defs><sodipodi:namedview
     pagecolor="#ffffff"
     bordercolor="#666666"
     borderopacity="1"
     objecttolerance="10"
     gridtolerance="10"
     guidetolerance="10"
     inkscape:pageopacity="0"
     inkscape:pageshadow="2"
     inkscape:window-width="640"
     inkscape:window-height="480"
     id="namedview4" /><g
     id="g10"
     inkscape:groupmode="layer"
     inkscape:label="PATY222"
     transform="matrix(1.3333333,0,0,-1.3333333,0,1133.8533)"><g
       id="g12"><g
         id="g14"
         clip-path="url(#clipPath18)"><g
           id="g20"
           transform="translate(370.072,743.8625)"><path
             d="m 0,0 c 0,-42.937 -34.807,-77.744 -77.744,-77.744 -42.936,0 -77.744,34.807 -77.744,77.744 0,42.937 34.808,77.744 77.744,77.744 C -34.807,77.744 0,42.937 0,0"
             style="fill:#94c11f;fill-opacity:1;fill-rule:nonzero;stroke:none"
             id="path22" /></g><g
           id="g24"
           transform="translate(370.072,743.8625)"><path
             d="m 0,0 c 0,-42.937 -34.807,-77.744 -77.744,-77.744 -42.936,0 -77.744,34.807 -77.744,77.744 0,42.937 34.808,77.744 77.744,77.744 C -34.807,77.744 0,42.937 0,0 Z"
             style="fill:none;stroke:#009640;stroke-width:1;stroke-linecap:butt;stroke-linejoin:miter;stroke-miterlimit:10;stroke-dasharray:none;stroke-opacity:1"
             id="path26" /></g><g
           id="g28"
           transform="translate(354.5232,743.8625)"><path
             d="m 0,0 c 0,-34.349 -27.846,-62.195 -62.195,-62.195 -34.349,0 -62.195,27.846 -62.195,62.195 0,34.349 27.846,62.195 62.195,62.195 C -27.846,62.195 0,34.349 0,0"
             style="fill:#2aaae1;fill-opacity:1;fill-rule:nonzero;stroke:none"
             id="path30" /></g></g></g><text
       transform="matrix(1,0,0,-1,214.585,755.5332)"
       style="font-variant:normal;font-weight:normal;font-stretch:normal;font-size:45.3562px;font-family:'Edwardian Script ITC';-inkscape-font-specification:EdwardianScriptITC;writing-mode:lr-tb;fill:#ffffff;fill-opacity:1;fill-rule:nonzero;stroke:none"
       id="text34"><tspan
         x="0 38.416702 46.036545 61.639076 73.567757"
         y="0"
         sodipodi:role="line"
         id="tspan32">Diabe</tspan></text><text
       transform="matrix(1,0,0,-1,241.4292,711.7031)"
       style="font-variant:normal;font-weight:normal;font-stretch:normal;font-size:35.979px;font-family:'Edwardian Script ITC';-inkscape-font-specification:EdwardianScriptITC;writing-mode:lr-tb;fill:#ffffff;fill-opacity:1;fill-rule:nonzero;stroke:none"
       id="text38"><tspan
         x="0 27.66785 33.712322"
         y="0"
         sodipodi:role="line"
         id="tspan36">Pie</tspan></text><g
       id="g40"><g
         id="g42"
         clip-path="url(#clipPath46)"><g
           id="g48"
           transform="translate(318.4634,824.1045)"><path
             d="m 0,0 c 0,-7.075 -3.267,-12.81 -7.297,-12.81 -4.031,0 -7.298,5.735 -7.298,12.81 0,7.075 3.267,12.81 7.298,12.81 C -3.267,12.81 0,7.075 0,0"
             style="fill:#32aa4b;fill-opacity:1;fill-rule:nonzero;stroke:none"
             id="path50" /></g><g
           id="g52"
           transform="translate(318.4634,824.1045)"><path
             d="m 0,0 c 0,-7.075 -3.267,-12.81 -7.297,-12.81 -4.031,0 -7.298,5.735 -7.298,12.81 0,7.075 3.267,12.81 7.298,12.81 C -3.267,12.81 0,7.075 0,0 Z"
             style="fill:none;stroke:#ffffff;stroke-width:1;stroke-linecap:butt;stroke-linejoin:miter;stroke-miterlimit:10;stroke-dasharray:none;stroke-opacity:1"
             id="path54" /></g><g
           id="g56"
           transform="translate(332.7841,820.2828)"><path
             d="m 0,0 c 0,-5.345 -2.469,-9.679 -5.514,-9.679 -3.045,0 -5.513,4.334 -5.513,9.679 0,5.345 2.468,9.679 5.513,9.679 C -2.469,9.679 0,5.345 0,0"
             style="fill:#32aa4b;fill-opacity:1;fill-rule:nonzero;stroke:none"
             id="path58" /></g><g
           id="g60"
           transform="translate(332.7841,820.2828)"><path
             d="m 0,0 c 0,-5.345 -2.469,-9.679 -5.514,-9.679 -3.045,0 -5.513,4.334 -5.513,9.679 0,5.345 2.468,9.679 5.513,9.679 C -2.469,9.679 0,5.345 0,0 Z"
             style="fill:none;stroke:#ffffff;stroke-width:1;stroke-linecap:butt;stroke-linejoin:miter;stroke-miterlimit:10;stroke-dasharray:none;stroke-opacity:1"
             id="path62" /></g><g
           id="g64"
           transform="translate(346.3125,814.0948)"><path
             d="m 0,0 c 0,-5.076 -2.344,-9.191 -5.236,-9.191 -2.892,0 -5.236,4.115 -5.236,9.191 0,5.076 2.344,9.191 5.236,9.191 C -2.344,9.191 0,5.076 0,0"
             style="fill:#32aa4b;fill-opacity:1;fill-rule:nonzero;stroke:none"
             id="path66" /></g><g
           id="g68"
           transform="translate(346.3125,814.0948)"><path
             d="m 0,0 c 0,-5.076 -2.344,-9.191 -5.236,-9.191 -2.892,0 -5.236,4.115 -5.236,9.191 0,5.076 2.344,9.191 5.236,9.191 C -2.344,9.191 0,5.076 0,0 Z"
             style="fill:none;stroke:#ffffff;stroke-width:1;stroke-linecap:butt;stroke-linejoin:miter;stroke-miterlimit:10;stroke-dasharray:none;stroke-opacity:1"
             id="path70" /></g><g
           id="g72"
           transform="translate(356.0792,802.8744)"><path
             d="m 0,0 c 0,-3.956 -1.827,-7.162 -4.08,-7.162 -2.253,0 -4.08,3.206 -4.08,7.162 0,3.956 1.827,7.162 4.08,7.162 C -1.827,7.162 0,3.956 0,0"
             style="fill:#32aa4b;fill-opacity:1;fill-rule:nonzero;stroke:none"
             id="path74" /></g><g
           id="g76"
           transform="translate(356.0792,802.8744)"><path
             d="m 0,0 c 0,-3.956 -1.827,-7.162 -4.08,-7.162 -2.253,0 -4.08,3.206 -4.08,7.162 0,3.956 1.827,7.162 4.08,7.162 C -1.827,7.162 0,3.956 0,0 Z"
             style="fill:none;stroke:#ffffff;stroke-width:1;stroke-linecap:butt;stroke-linejoin:miter;stroke-miterlimit:10;stroke-dasharray:none;stroke-opacity:1"
             id="path78" /></g><g
           id="g80"
           transform="translate(365.781,794.2888)"><path
             d="m 0,0 c 0,-3.169 -1.464,-5.739 -3.269,-5.739 -1.806,0 -3.269,2.57 -3.269,5.739 0,3.169 1.463,5.739 3.269,5.739 C -1.464,5.739 0,3.169 0,0"
             style="fill:#32aa4b;fill-opacity:1;fill-rule:nonzero;stroke:none"
             id="path82" /></g><g
           id="g84"
           transform="translate(365.781,794.2888)"><path
             d="m 0,0 c 0,-3.169 -1.464,-5.739 -3.269,-5.739 -1.806,0 -3.269,2.57 -3.269,5.739 0,3.169 1.463,5.739 3.269,5.739 C -1.464,5.739 0,3.169 0,0 Z"
             style="fill:none;stroke:#ffffff;stroke-width:1;stroke-linecap:butt;stroke-linejoin:miter;stroke-miterlimit:10;stroke-dasharray:none;stroke-opacity:1"
             id="path86" /></g><g
           id="g88"
           transform="translate(333.699,801.7615)"><path
             d="m 0,0 c -0.956,0.249 -1.951,1.017 -3.018,1.644 -1.138,0.668 -2.331,1.12 -3.612,1.37 -0.353,0.069 -0.698,0.147 -1.041,0.276 -3.349,1.265 -6.736,1.739 -10.087,1.117 -1.787,-0.332 -3.215,-1.222 -4.351,-2.475 -0.569,-0.627 -0.801,-1.421 -1.367,-2.028 -0.666,-0.714 -0.742,-1.627 -0.847,-2.534 -0.008,-0.064 -0.005,-0.133 -0.029,-0.19 -0.578,-1.344 -0.483,-2.819 -0.55,-4.266 -0.123,-2.67 0.593,-5.299 1.426,-7.925 0.376,-1.183 0.883,-2.337 1.354,-3.5 0.669,-1.657 1.661,-3.202 2.372,-4.837 0.879,-2.02 1.441,-4.072 1.557,-6.163 0.077,-1.396 -0.043,-2.77 -0.243,-4.129 -0.013,-0.089 -0.063,-0.17 -0.096,-0.255 -0.448,-1.135 -0.941,-2.255 -1.331,-3.411 -0.354,-1.048 -1.042,-1.903 -1.638,-2.814 -0.744,-1.138 -1.601,-2.209 -2.558,-3.196 -0.902,-0.93 -1.762,-1.895 -2.748,-2.764 -1.873,-1.652 -3.874,-3.18 -5.892,-4.687 -1.192,-0.89 -2.409,-1.755 -3.579,-2.668 -1.43,-1.115 -2.705,-2.349 -3.72,-3.793 -0.343,-0.488 -0.736,-0.945 -1.106,-1.416 -0.024,-0.03 -0.064,-0.055 -0.073,-0.09 -0.282,-1.068 -1.177,-1.844 -1.466,-2.917 -0.168,-0.625 -0.462,-1.213 -0.702,-1.816 -0.252,-0.63 -0.49,-1.254 -0.511,-1.965 -0.014,-0.473 -0.333,-0.88 -0.419,-1.361 -0.388,-2.178 -0.477,-4.393 0.086,-6.638 0.494,-1.973 1.435,-3.846 2.919,-5.502 1.184,-1.322 2.577,-2.443 4.141,-3.418 1.049,-0.654 2.163,-1.196 3.235,-1.803 0.877,-0.497 1.879,-0.82 2.901,-1.039 1.166,-0.249 2.326,-0.403 3.496,-0.481 1.158,-0.077 2.248,0.122 3.3,0.39 2.139,0.543 4,1.518 5.554,2.85 1.272,1.09 2.403,2.303 3.444,3.587 0.633,0.779 1.211,1.601 1.673,2.451 0.541,0.999 1.259,1.899 1.662,2.987 1.277,3.445 2.673,6.846 4.017,10.266 0.109,0.277 0.258,0.526 0.456,0.753 0.186,0.215 0.314,0.462 0.434,0.719 0.494,1.062 1.12,2.056 1.791,3.025 0.421,0.608 0.832,1.221 1.222,1.848 0.292,0.472 0.704,0.878 1.006,1.346 0.908,1.41 2.072,2.646 3.176,3.92 1.288,1.485 2.822,2.76 4.433,3.964 1.557,1.163 3.053,2.386 4.47,3.68 1.843,1.685 3.607,3.434 5.203,5.313 1.002,1.179 1.965,2.397 2.749,3.702 0.437,0.727 0.997,1.408 1.255,2.246 0.27,0.88 0.645,1.727 1.004,2.576 0.615,1.456 1.059,2.946 1.24,4.549 0.169,1.499 0.149,3.002 -0.071,4.51 -0.204,1.398 -0.664,2.783 -1.316,4.14 -0.537,1.119 -1.214,2.181 -1.793,3.28 -0.381,0.723 -0.991,1.341 -1.538,1.979 -0.765,0.894 -1.523,1.8 -2.415,2.605 -1.366,1.235 -2.865,2.339 -4.327,3.48 C 7.713,-4.399 6.21,-3.384 4.663,-2.45 3.251,-1.599 1.884,-0.637 0,0"
             style="fill:#94c11f;fill-opacity:1;fill-rule:nonzero;stroke:none"
             id="path90" /></g><g
           id="g92"
           transform="translate(333.699,801.7615)"><path
             d="m 0,0 c -0.956,0.249 -1.951,1.017 -3.018,1.644 -1.138,0.668 -2.331,1.12 -3.612,1.37 -0.353,0.069 -0.698,0.147 -1.041,0.276 -3.349,1.265 -6.736,1.739 -10.087,1.117 -1.787,-0.332 -3.215,-1.222 -4.351,-2.475 -0.569,-0.627 -0.801,-1.421 -1.367,-2.028 -0.666,-0.714 -0.742,-1.627 -0.847,-2.534 -0.008,-0.064 -0.005,-0.133 -0.029,-0.19 -0.578,-1.344 -0.483,-2.819 -0.55,-4.266 -0.123,-2.67 0.593,-5.299 1.426,-7.925 0.376,-1.183 0.883,-2.337 1.354,-3.5 0.669,-1.657 1.661,-3.202 2.372,-4.837 0.879,-2.02 1.441,-4.072 1.557,-6.163 0.077,-1.396 -0.043,-2.77 -0.243,-4.129 -0.013,-0.089 -0.063,-0.17 -0.096,-0.255 -0.448,-1.135 -0.941,-2.255 -1.331,-3.411 -0.354,-1.048 -1.042,-1.903 -1.638,-2.814 -0.744,-1.138 -1.601,-2.209 -2.558,-3.196 -0.902,-0.93 -1.762,-1.895 -2.748,-2.764 -1.873,-1.652 -3.874,-3.18 -5.892,-4.687 -1.192,-0.89 -2.409,-1.755 -3.579,-2.668 -1.43,-1.115 -2.705,-2.349 -3.72,-3.793 -0.343,-0.488 -0.736,-0.945 -1.106,-1.416 -0.024,-0.03 -0.064,-0.055 -0.073,-0.09 -0.282,-1.068 -1.177,-1.844 -1.466,-2.917 -0.168,-0.625 -0.462,-1.213 -0.702,-1.816 -0.252,-0.63 -0.49,-1.254 -0.511,-1.965 -0.014,-0.473 -0.333,-0.88 -0.419,-1.361 -0.388,-2.178 -0.477,-4.393 0.086,-6.638 0.494,-1.973 1.435,-3.846 2.919,-5.502 1.184,-1.322 2.577,-2.443 4.141,-3.418 1.049,-0.654 2.163,-1.196 3.235,-1.803 0.877,-0.497 1.879,-0.82 2.901,-1.039 1.166,-0.249 2.326,-0.403 3.496,-0.481 1.158,-0.077 2.248,0.122 3.3,0.39 2.139,0.543 4,1.518 5.554,2.85 1.272,1.09 2.403,2.303 3.444,3.587 0.633,0.779 1.211,1.601 1.673,2.451 0.541,0.999 1.259,1.899 1.662,2.987 1.277,3.445 2.673,6.846 4.017,10.266 0.109,0.277 0.258,0.526 0.456,0.753 0.186,0.215 0.314,0.462 0.434,0.719 0.494,1.062 1.12,2.056 1.791,3.025 0.421,0.608 0.832,1.221 1.222,1.848 0.292,0.472 0.704,0.878 1.006,1.346 0.908,1.41 2.072,2.646 3.176,3.92 1.288,1.485 2.822,2.76 4.433,3.964 1.557,1.163 3.053,2.386 4.47,3.68 1.843,1.685 3.607,3.434 5.203,5.313 1.002,1.179 1.965,2.397 2.749,3.702 0.437,0.727 0.997,1.408 1.255,2.246 0.27,0.88 0.645,1.727 1.004,2.576 0.615,1.456 1.059,2.946 1.24,4.549 0.169,1.499 0.149,3.002 -0.071,4.51 -0.204,1.398 -0.664,2.783 -1.316,4.14 -0.537,1.119 -1.214,2.181 -1.793,3.28 -0.381,0.723 -0.991,1.341 -1.538,1.979 -0.765,0.894 -1.523,1.8 -2.415,2.605 -1.366,1.235 -2.865,2.339 -4.327,3.48 C 7.713,-4.399 6.21,-3.384 4.663,-2.45 3.251,-1.599 1.884,-0.637 0,0 Z"
             style="fill:none;stroke:#ffffff;stroke-width:2;stroke-linecap:butt;stroke-linejoin:miter;stroke-miterlimit:10;stroke-dasharray:none;stroke-opacity:1"
             id="path94" /></g><g
           id="g96"
           transform="translate(375.3838,555.7194)"><path
             d="m 0,0 c 0,-42.937 -34.807,-77.744 -77.744,-77.744 -42.936,0 -77.744,34.807 -77.744,77.744 0,42.937 34.808,77.744 77.744,77.744 C -34.807,77.744 0,42.937 0,0"
             style="fill:#94c11f;fill-opacity:1;fill-rule:nonzero;stroke:none"
             id="path98" /></g><g
           id="g100"
           transform="translate(375.3838,555.7194)"><path
             d="m 0,0 c 0,-42.937 -34.807,-77.744 -77.744,-77.744 -42.936,0 -77.744,34.807 -77.744,77.744 0,42.937 34.808,77.744 77.744,77.744 C -34.807,77.744 0,42.937 0,0 Z"
             style="fill:none;stroke:#009640;stroke-width:1;stroke-linecap:butt;stroke-linejoin:miter;stroke-miterlimit:10;stroke-dasharray:none;stroke-opacity:1"
             id="path102" /></g><g
           id="g104"
           transform="translate(359.835,555.7194)"><path
             d="m 0,0 c 0,-34.349 -27.846,-62.195 -62.195,-62.195 -34.349,0 -62.195,27.846 -62.195,62.195 0,34.349 27.846,62.195 62.195,62.195 C -27.846,62.195 0,34.349 0,0"
             style="fill:#2aaae1;fill-opacity:1;fill-rule:nonzero;stroke:none"
             id="path106" /></g></g></g><text
       transform="matrix(1,0,0,-1,219.8965,567.3896)"
       style="font-variant:normal;font-weight:normal;font-stretch:normal;font-size:45.3562px;font-family:'Edwardian Script ITC';-inkscape-font-specification:EdwardianScriptITC;writing-mode:lr-tb;fill:#ffffff;fill-opacity:1;fill-rule:nonzero;stroke:none"
       id="text110"><tspan
         x="0 38.416702 46.036545 61.639076 73.567757"
         y="0"
         sodipodi:role="line"
         id="tspan108">Diabe</tspan></text><text
       transform="matrix(1,0,0,-1,246.7407,523.5596)"
       style="font-variant:normal;font-weight:normal;font-stretch:normal;font-size:35.979px;font-family:'Edwardian Script ITC';-inkscape-font-specification:EdwardianScriptITC;writing-mode:lr-tb;fill:#ffffff;fill-opacity:1;fill-rule:nonzero;stroke:none"
       id="text114"><tspan
         x="0 27.66785 33.712322"
         y="0"
         sodipodi:role="line"
         id="tspan112">Pie</tspan></text><g
       id="g116"><g
         id="g118"
         clip-path="url(#clipPath122)"><g
           id="g124"
           transform="translate(289.0176,545.5386)"><path
             d="m 0,0 c -0.955,0.936 -2.216,1.404 -3.786,1.404 -2.003,0 -4.075,-0.668 -6.219,-2.003 -2.342,1.534 -5.235,2.302 -8.678,2.302 -4.533,0 -8.67,-1.368 -12.412,-4.102 -3.742,-2.735 -5.613,-5.76 -5.613,-9.075 0,-1.639 0.489,-2.948 1.467,-3.926 0.978,-0.978 2.281,-1.467 3.909,-1.467 2.495,0 5.024,1.16 7.589,3.479 2.565,2.319 3.847,4.614 3.847,6.887 0,1.861 -1.007,2.793 -3.021,2.793 -2.108,0 -4.164,-0.866 -6.166,-2.598 -2.003,-1.733 -3.004,-3.511 -3.004,-5.337 0,-0.737 0.193,-1.36 0.582,-1.869 0.387,-0.509 0.863,-0.763 1.428,-0.763 0.223,0 0.335,0.046 0.335,0.14 0,0.105 -0.1,0.158 -0.3,0.158 -0.377,0 -0.707,0.152 -0.989,0.456 -0.283,0.305 -0.424,0.667 -0.424,1.089 0,1.708 0.998,3.536 2.995,5.485 1.997,1.948 3.868,2.923 5.613,2.923 1.745,0 2.618,-0.85 2.618,-2.548 0,-2.132 -1.256,-4.328 -3.769,-6.588 -2.512,-2.26 -4.945,-3.39 -7.299,-3.39 -1.44,0 -2.582,0.386 -3.426,1.159 -0.843,0.773 -1.265,1.815 -1.265,3.127 0,2.588 1.5,5.347 4.498,8.274 3.654,3.573 7.952,5.359 12.895,5.359 3.536,0 6.219,-0.779 8.046,-2.337 -1.125,-0.773 -2.489,-2.055 -4.094,-3.847 -1.604,-1.792 -2.998,-3.578 -4.181,-5.358 -2.365,-3.608 -3.9,-5.88 -4.603,-6.817 -0.644,-0.866 -1.423,-1.716 -2.336,-2.547 -2.085,-1.898 -4.409,-2.846 -6.974,-2.846 -1.453,0 -2.656,0.322 -3.611,0.966 -0.954,0.644 -1.431,1.452 -1.431,2.424 0,0.621 0.093,0.931 0.28,0.931 0.059,0 0.082,-0.128 0.071,-0.386 -0.024,-0.632 0.269,-0.948 0.878,-0.948 0.352,0 0.647,0.14 0.887,0.421 0.24,0.281 0.361,0.621 0.361,1.019 0,0.796 -0.358,1.195 -1.072,1.195 -0.492,0 -0.917,-0.217 -1.274,-0.65 -0.357,-0.434 -0.536,-0.949 -0.536,-1.547 0,-1.077 0.521,-1.976 1.564,-2.696 1.042,-0.721 2.348,-1.08 3.918,-1.08 1.92,0 4.104,0.597 6.553,1.792 2.072,1.03 3.683,2.184 4.831,3.461 1.147,1.276 2.412,3.36 3.794,6.253 2.284,4.779 4.697,8.117 7.238,10.014 0.984,-1.078 1.476,-2.301 1.476,-3.671 0,-1.594 -0.477,-2.964 -1.43,-4.112 -0.954,-1.148 -2.097,-1.721 -3.43,-1.721 -0.738,0 -1.469,0.207 -2.194,0.622 -0.129,0.072 -0.222,0.107 -0.281,0.107 -0.07,0 -0.117,-0.035 -0.14,-0.106 0,-0.224 0.363,-0.463 1.088,-0.717 0.725,-0.253 1.404,-0.38 2.036,-0.38 1.615,0 3.025,0.556 4.23,1.669 1.204,1.112 1.807,2.418 1.807,3.917 0,1.78 -0.878,3.373 -2.635,4.779 2.061,1.276 4.064,1.914 6.009,1.914 1.44,0 2.6,-0.447 3.478,-1.342 0.878,-0.895 1.317,-2.079 1.317,-3.553 0,-0.948 -0.155,-1.831 -0.465,-2.65 -0.024,-0.07 -0.035,-0.123 -0.035,-0.158 0,-0.117 0.059,-0.176 0.176,-0.176 0.15,0 0.306,0.363 0.468,1.088 0.162,0.726 0.243,1.393 0.243,2.001 C 1.432,-2.17 0.955,-0.936 0,0 Z"
             style="fill:none;stroke:#ffffff;stroke-width:1;stroke-linecap:butt;stroke-linejoin:miter;stroke-miterlimit:10;stroke-dasharray:none;stroke-opacity:1"
             id="path126" /></g><g
           id="g128"
           transform="translate(282.6846,537.0869)"><path
             d="m 0,0 c -0.398,0 -0.779,-0.179 -1.142,-0.536 -0.363,-0.357 -0.545,-0.729 -0.545,-1.115 0,-0.528 0.264,-0.791 0.791,-0.791 0.41,0 0.788,0.178 1.133,0.536 0.346,0.357 0.518,0.74 0.518,1.151 C 0.755,-0.252 0.503,0 0,0 Z m 0.905,-7.915 c -0.059,0 -0.117,-0.058 -0.176,-0.175 -2.627,-3.719 -4.463,-5.578 -5.506,-5.578 -0.552,0 -0.827,0.264 -0.827,0.791 0,0.515 0.287,1.247 0.861,2.196 l 3.988,6.553 c -0.574,-0.082 -1.019,-0.123 -1.335,-0.123 -0.211,0 -0.498,0.041 -0.861,0.123 l -2.741,-4.656 c -0.808,-1.382 -1.212,-2.413 -1.212,-3.092 0,-0.586 0.184,-1.075 0.554,-1.467 0.37,-0.392 0.829,-0.589 1.381,-0.589 1.16,0 2.843,1.531 5.047,4.593 l 0.756,1.038 c 0.106,0.152 0.165,0.246 0.176,0.281 0,0.07 -0.035,0.105 -0.105,0.105 z"
             style="fill:none;stroke:#ffffff;stroke-width:1;stroke-linecap:butt;stroke-linejoin:miter;stroke-miterlimit:10;stroke-dasharray:none;stroke-opacity:1"
             id="path130" /></g><g
           id="g132"
           transform="translate(292.5142,529.1548)"><path
             d="m 0,0 c -0.094,0 -0.211,-0.093 -0.352,-0.281 -2.685,-3.613 -4.953,-5.42 -6.805,-5.42 -1.091,0 -1.636,0.504 -1.636,1.511 0,0.808 0.398,1.815 1.195,3.022 2.576,0.515 4.415,1.068 5.516,1.66 1.101,0.591 1.651,1.309 1.651,2.152 0,0.363 -0.149,0.67 -0.447,0.922 -0.299,0.252 -0.66,0.378 -1.081,0.378 -0.972,0 -2.231,-0.422 -3.777,-1.265 -2.94,-1.604 -4.41,-3.461 -4.41,-5.569 0,-0.89 0.279,-1.631 0.835,-2.222 C -8.754,-5.703 -8.065,-6 -7.245,-6 c 1.735,0 3.816,1.498 6.243,4.492 l 0.755,0.946 c 0.211,0.27 0.317,0.421 0.317,0.457 C 0.07,-0.047 0.046,-0.012 0,0 Z m -3.171,0.914 c -1.171,-0.791 -2.6,-1.403 -4.287,-1.836 0.972,1.37 1.965,2.485 2.978,3.346 1.013,0.861 1.83,1.292 2.451,1.292 0.409,0 0.614,-0.188 0.614,-0.562 0,-0.703 -0.585,-1.45 -1.756,-2.24 z"
             style="fill:none;stroke:#ffffff;stroke-width:1;stroke-linecap:butt;stroke-linejoin:miter;stroke-miterlimit:10;stroke-dasharray:none;stroke-opacity:1"
             id="path134" /></g><g
           id="g136"
           transform="translate(323.7752,635.9613)"><path
             d="m 0,0 c 0,-7.075 -3.267,-12.81 -7.297,-12.81 -4.031,0 -7.298,5.735 -7.298,12.81 0,7.075 3.267,12.81 7.298,12.81 C -3.267,12.81 0,7.075 0,0"
             style="fill:#32aa4b;fill-opacity:1;fill-rule:nonzero;stroke:none"
             id="path138" /></g><g
           id="g140"
           transform="translate(323.7752,635.9613)"><path
             d="m 0,0 c 0,-7.075 -3.267,-12.81 -7.297,-12.81 -4.031,0 -7.298,5.735 -7.298,12.81 0,7.075 3.267,12.81 7.298,12.81 C -3.267,12.81 0,7.075 0,0 Z"
             style="fill:none;stroke:#ffffff;stroke-width:1;stroke-linecap:butt;stroke-linejoin:miter;stroke-miterlimit:10;stroke-dasharray:none;stroke-opacity:1"
             id="path142" /></g><g
           id="g144"
           transform="translate(338.0959,632.1396)"><path
             d="m 0,0 c 0,-5.345 -2.469,-9.679 -5.514,-9.679 -3.045,0 -5.513,4.334 -5.513,9.679 0,5.345 2.468,9.679 5.513,9.679 C -2.469,9.679 0,5.345 0,0"
             style="fill:#32aa4b;fill-opacity:1;fill-rule:nonzero;stroke:none"
             id="path146" /></g><g
           id="g148"
           transform="translate(338.0959,632.1396)"><path
             d="m 0,0 c 0,-5.345 -2.469,-9.679 -5.514,-9.679 -3.045,0 -5.513,4.334 -5.513,9.679 0,5.345 2.468,9.679 5.513,9.679 C -2.469,9.679 0,5.345 0,0 Z"
             style="fill:none;stroke:#ffffff;stroke-width:1;stroke-linecap:butt;stroke-linejoin:miter;stroke-miterlimit:10;stroke-dasharray:none;stroke-opacity:1"
             id="path150" /></g><g
           id="g152"
           transform="translate(351.6243,625.9516)"><path
             d="m 0,0 c 0,-5.076 -2.344,-9.191 -5.236,-9.191 -2.892,0 -5.236,4.115 -5.236,9.191 0,5.076 2.344,9.191 5.236,9.191 C -2.344,9.191 0,5.076 0,0"
             style="fill:#32aa4b;fill-opacity:1;fill-rule:nonzero;stroke:none"
             id="path154" /></g><g
           id="g156"
           transform="translate(351.6243,625.9516)"><path
             d="m 0,0 c 0,-5.076 -2.344,-9.191 -5.236,-9.191 -2.892,0 -5.236,4.115 -5.236,9.191 0,5.076 2.344,9.191 5.236,9.191 C -2.344,9.191 0,5.076 0,0 Z"
             style="fill:none;stroke:#ffffff;stroke-width:1;stroke-linecap:butt;stroke-linejoin:miter;stroke-miterlimit:10;stroke-dasharray:none;stroke-opacity:1"
             id="path158" /></g><g
           id="g160"
           transform="translate(361.391,614.7312)"><path
             d="m 0,0 c 0,-3.956 -1.827,-7.162 -4.08,-7.162 -2.253,0 -4.08,3.206 -4.08,7.162 0,3.956 1.827,7.162 4.08,7.162 C -1.827,7.162 0,3.956 0,0"
             style="fill:#32aa4b;fill-opacity:1;fill-rule:nonzero;stroke:none"
             id="path162" /></g><g
           id="g164"
           transform="translate(361.391,614.7312)"><path
             d="m 0,0 c 0,-3.956 -1.827,-7.162 -4.08,-7.162 -2.253,0 -4.08,3.206 -4.08,7.162 0,3.956 1.827,7.162 4.08,7.162 C -1.827,7.162 0,3.956 0,0 Z"
             style="fill:none;stroke:#ffffff;stroke-width:1;stroke-linecap:butt;stroke-linejoin:miter;stroke-miterlimit:10;stroke-dasharray:none;stroke-opacity:1"
             id="path166" /></g><g
           id="g168"
           transform="translate(371.0928,606.1456)"><path
             d="m 0,0 c 0,-3.169 -1.464,-5.739 -3.269,-5.739 -1.806,0 -3.269,2.57 -3.269,5.739 0,3.169 1.463,5.739 3.269,5.739 C -1.464,5.739 0,3.169 0,0"
             style="fill:#32aa4b;fill-opacity:1;fill-rule:nonzero;stroke:none"
             id="path170" /></g><g
           id="g172"
           transform="translate(371.0928,606.1456)"><path
             d="m 0,0 c 0,-3.169 -1.464,-5.739 -3.269,-5.739 -1.806,0 -3.269,2.57 -3.269,5.739 0,3.169 1.463,5.739 3.269,5.739 C -1.464,5.739 0,3.169 0,0 Z"
             style="fill:none;stroke:#ffffff;stroke-width:1;stroke-linecap:butt;stroke-linejoin:miter;stroke-miterlimit:10;stroke-dasharray:none;stroke-opacity:1"
             id="path174" /></g><g
           id="g176"
           transform="translate(339.0108,613.6183)"><path
             d="m 0,0 c -0.956,0.249 -1.951,1.017 -3.018,1.644 -1.138,0.668 -2.331,1.12 -3.612,1.37 -0.353,0.069 -0.698,0.147 -1.041,0.276 -3.349,1.265 -6.736,1.739 -10.087,1.117 -1.787,-0.332 -3.215,-1.221 -4.351,-2.475 -0.569,-0.627 -0.801,-1.421 -1.367,-2.028 -0.666,-0.714 -0.742,-1.627 -0.847,-2.534 -0.008,-0.064 -0.005,-0.133 -0.029,-0.19 -0.578,-1.344 -0.483,-2.819 -0.55,-4.266 -0.123,-2.67 0.593,-5.299 1.426,-7.925 0.376,-1.183 0.883,-2.337 1.354,-3.5 0.669,-1.657 1.661,-3.202 2.372,-4.837 0.879,-2.02 1.441,-4.072 1.557,-6.163 0.077,-1.396 -0.043,-2.77 -0.243,-4.129 -0.013,-0.089 -0.063,-0.17 -0.096,-0.255 -0.448,-1.135 -0.941,-2.255 -1.331,-3.411 -0.354,-1.048 -1.042,-1.903 -1.638,-2.814 -0.744,-1.138 -1.601,-2.209 -2.558,-3.195 -0.902,-0.931 -1.762,-1.896 -2.748,-2.765 -1.873,-1.652 -3.874,-3.18 -5.892,-4.687 -1.192,-0.89 -2.409,-1.755 -3.579,-2.668 -1.43,-1.115 -2.705,-2.349 -3.72,-3.793 -0.343,-0.488 -0.736,-0.945 -1.106,-1.416 -0.024,-0.03 -0.064,-0.055 -0.073,-0.089 -0.282,-1.069 -1.177,-1.845 -1.466,-2.918 -0.168,-0.625 -0.462,-1.213 -0.702,-1.816 -0.252,-0.63 -0.49,-1.254 -0.511,-1.964 -0.014,-0.474 -0.333,-0.881 -0.419,-1.362 -0.388,-2.178 -0.477,-4.393 0.086,-6.638 0.494,-1.973 1.435,-3.846 2.919,-5.502 1.184,-1.322 2.577,-2.443 4.141,-3.418 1.049,-0.654 2.163,-1.196 3.235,-1.803 0.877,-0.497 1.879,-0.82 2.901,-1.039 1.166,-0.249 2.326,-0.403 3.496,-0.481 1.158,-0.077 2.248,0.122 3.3,0.39 2.139,0.543 4,1.518 5.554,2.85 1.272,1.09 2.403,2.303 3.444,3.587 0.633,0.779 1.211,1.601 1.673,2.451 0.541,0.999 1.259,1.899 1.662,2.987 1.277,3.445 2.673,6.846 4.017,10.266 0.109,0.277 0.258,0.526 0.456,0.753 0.186,0.216 0.314,0.462 0.434,0.719 0.494,1.062 1.12,2.056 1.791,3.025 0.421,0.608 0.832,1.221 1.222,1.848 0.292,0.472 0.704,0.878 1.006,1.346 0.908,1.411 2.072,2.646 3.176,3.92 1.288,1.485 2.822,2.76 4.433,3.964 1.557,1.163 3.053,2.386 4.47,3.68 1.843,1.685 3.607,3.434 5.203,5.313 1.002,1.179 1.965,2.397 2.749,3.702 0.437,0.727 0.997,1.408 1.255,2.246 0.27,0.88 0.645,1.727 1.004,2.576 0.615,1.456 1.059,2.946 1.24,4.549 0.169,1.499 0.149,3.002 -0.071,4.51 -0.204,1.398 -0.664,2.783 -1.316,4.14 -0.537,1.119 -1.214,2.181 -1.793,3.28 -0.381,0.723 -0.991,1.341 -1.538,1.979 -0.765,0.894 -1.523,1.8 -2.415,2.605 -1.366,1.235 -2.865,2.339 -4.327,3.48 C 7.713,-4.399 6.21,-3.383 4.663,-2.45 3.251,-1.599 1.884,-0.637 0,0"
             style="fill:#94c11f;fill-opacity:1;fill-rule:nonzero;stroke:none"
             id="path178" /></g><g
           id="g180"
           transform="translate(339.0108,613.6183)"><path
             d="m 0,0 c -0.956,0.249 -1.951,1.017 -3.018,1.644 -1.138,0.668 -2.331,1.12 -3.612,1.37 -0.353,0.069 -0.698,0.147 -1.041,0.276 -3.349,1.265 -6.736,1.739 -10.087,1.117 -1.787,-0.332 -3.215,-1.221 -4.351,-2.475 -0.569,-0.627 -0.801,-1.421 -1.367,-2.028 -0.666,-0.714 -0.742,-1.627 -0.847,-2.534 -0.008,-0.064 -0.005,-0.133 -0.029,-0.19 -0.578,-1.344 -0.483,-2.819 -0.55,-4.266 -0.123,-2.67 0.593,-5.299 1.426,-7.925 0.376,-1.183 0.883,-2.337 1.354,-3.5 0.669,-1.657 1.661,-3.202 2.372,-4.837 0.879,-2.02 1.441,-4.072 1.557,-6.163 0.077,-1.396 -0.043,-2.77 -0.243,-4.129 -0.013,-0.089 -0.063,-0.17 -0.096,-0.255 -0.448,-1.135 -0.941,-2.255 -1.331,-3.411 -0.354,-1.048 -1.042,-1.903 -1.638,-2.814 -0.744,-1.138 -1.601,-2.209 -2.558,-3.195 -0.902,-0.931 -1.762,-1.896 -2.748,-2.765 -1.873,-1.652 -3.874,-3.18 -5.892,-4.687 -1.192,-0.89 -2.409,-1.755 -3.579,-2.668 -1.43,-1.115 -2.705,-2.349 -3.72,-3.793 -0.343,-0.488 -0.736,-0.945 -1.106,-1.416 -0.024,-0.03 -0.064,-0.055 -0.073,-0.089 -0.282,-1.069 -1.177,-1.845 -1.466,-2.918 -0.168,-0.625 -0.462,-1.213 -0.702,-1.816 -0.252,-0.63 -0.49,-1.254 -0.511,-1.964 -0.014,-0.474 -0.333,-0.881 -0.419,-1.362 -0.388,-2.178 -0.477,-4.393 0.086,-6.638 0.494,-1.973 1.435,-3.846 2.919,-5.502 1.184,-1.322 2.577,-2.443 4.141,-3.418 1.049,-0.654 2.163,-1.196 3.235,-1.803 0.877,-0.497 1.879,-0.82 2.901,-1.039 1.166,-0.249 2.326,-0.403 3.496,-0.481 1.158,-0.077 2.248,0.122 3.3,0.39 2.139,0.543 4,1.518 5.554,2.85 1.272,1.09 2.403,2.303 3.444,3.587 0.633,0.779 1.211,1.601 1.673,2.451 0.541,0.999 1.259,1.899 1.662,2.987 1.277,3.445 2.673,6.846 4.017,10.266 0.109,0.277 0.258,0.526 0.456,0.753 0.186,0.216 0.314,0.462 0.434,0.719 0.494,1.062 1.12,2.056 1.791,3.025 0.421,0.608 0.832,1.221 1.222,1.848 0.292,0.472 0.704,0.878 1.006,1.346 0.908,1.411 2.072,2.646 3.176,3.92 1.288,1.485 2.822,2.76 4.433,3.964 1.557,1.163 3.053,2.386 4.47,3.68 1.843,1.685 3.607,3.434 5.203,5.313 1.002,1.179 1.965,2.397 2.749,3.702 0.437,0.727 0.997,1.408 1.255,2.246 0.27,0.88 0.645,1.727 1.004,2.576 0.615,1.456 1.059,2.946 1.24,4.549 0.169,1.499 0.149,3.002 -0.071,4.51 -0.204,1.398 -0.664,2.783 -1.316,4.14 -0.537,1.119 -1.214,2.181 -1.793,3.28 -0.381,0.723 -0.991,1.341 -1.538,1.979 -0.765,0.894 -1.523,1.8 -2.415,2.605 -1.366,1.235 -2.865,2.339 -4.327,3.48 C 7.713,-4.399 6.21,-3.383 4.663,-2.45 3.251,-1.599 1.884,-0.637 0,0 Z"
             style="fill:none;stroke:#ffffff;stroke-width:2;stroke-linecap:butt;stroke-linejoin:miter;stroke-miterlimit:10;stroke-dasharray:none;stroke-opacity:1"
             id="path182" /></g><g
           id="g184"
           transform="translate(381.6125,376.7193)"><path
             d="m 0,0 c 0,-42.937 -34.807,-77.744 -77.744,-77.744 -42.937,0 -77.744,34.807 -77.744,77.744 0,42.937 34.807,77.744 77.744,77.744 C -34.807,77.744 0,42.937 0,0"
             style="fill:#94c11f;fill-opacity:1;fill-rule:nonzero;stroke:none"
             id="path186" /></g><g
           id="g188"
           transform="translate(381.6125,376.7193)"><path
             d="m 0,0 c 0,-42.937 -34.807,-77.744 -77.744,-77.744 -42.937,0 -77.744,34.807 -77.744,77.744 0,42.937 34.807,77.744 77.744,77.744 C -34.807,77.744 0,42.937 0,0 Z"
             style="fill:none;stroke:#009640;stroke-width:1;stroke-linecap:butt;stroke-linejoin:miter;stroke-miterlimit:10;stroke-dasharray:none;stroke-opacity:1"
             id="path190" /></g><g
           id="g192"
           transform="translate(366.0638,376.7193)"><path
             d="m 0,0 c 0,-34.349 -27.846,-62.195 -62.195,-62.195 -34.349,0 -62.195,27.846 -62.195,62.195 0,34.349 27.846,62.195 62.195,62.195 C -27.846,62.195 0,34.349 0,0"
             style="fill:#2aaae1;fill-opacity:1;fill-rule:nonzero;stroke:none"
             id="path194" /></g></g></g><text
       transform="matrix(1,0,0,-1,226.1255,388.3896)"
       style="font-variant:normal;font-weight:normal;font-stretch:normal;font-size:45.3562px;font-family:'Edwardian Script ITC';-inkscape-font-specification:EdwardianScriptITC;writing-mode:lr-tb;fill:#ffffff;fill-opacity:1;fill-rule:nonzero;stroke:none"
       id="text198"><tspan
         x="0 38.416702 46.036545 61.639076 73.567757"
         y="0"
         sodipodi:role="line"
         id="tspan196">Diabe</tspan></text><g
       id="g200"><g
         id="g202"
         clip-path="url(#clipPath206)"><g
           id="g208"
           transform="translate(281.2705,415.8862)"><path
             d="m 0,0 c -1.152,1.202 -2.658,1.803 -4.518,1.803 -3.721,0 -7.382,-1.66 -10.984,-4.983 -2.467,3.588 -6.128,5.382 -10.985,5.382 -5.714,0 -10.838,-1.82 -15.37,-5.459 -4.533,-3.64 -6.799,-7.755 -6.799,-12.347 0,-2.141 0.664,-3.894 1.993,-5.26 1.329,-1.365 3.019,-2.048 5.072,-2.048 2.982,0 6.027,1.558 9.135,4.673 3.108,3.115 4.662,6.164 4.662,9.146 0,1.152 -0.336,2.086 -1.008,2.802 -0.672,0.716 -1.547,1.074 -2.624,1.074 -0.842,0 -1.558,-0.237 -2.148,-0.709 -0.591,-0.472 -0.886,-1.041 -0.886,-1.705 0,-0.974 0.45,-1.462 1.351,-1.462 0.502,0 0.937,0.181 1.306,0.543 0.369,0.362 0.554,0.786 0.554,1.273 0,0.665 -0.362,0.997 -1.085,0.997 h -0.31 c -0.059,-0.03 -0.133,-0.044 -0.222,-0.044 -0.162,0 -0.243,0.051 -0.243,0.155 0,0.354 0.546,0.531 1.639,0.531 0.959,0 1.734,-0.325 2.325,-0.974 0.59,-0.65 0.886,-1.506 0.886,-2.569 0,-2.806 -1.517,-5.729 -4.551,-8.77 -3.034,-3.042 -5.961,-4.563 -8.781,-4.563 -1.669,0 -3.009,0.48 -4.02,1.44 -1.012,0.959 -1.517,2.237 -1.517,3.831 0,2.008 0.628,4.208 1.882,6.6 1.255,2.392 2.931,4.577 5.028,6.556 4.163,3.926 8.74,5.89 13.731,5.89 4.828,0 8.319,-1.816 10.475,-5.448 -2.584,-2.436 -4.954,-5.381 -7.109,-8.836 -3.573,-5.7 -6.223,-9.398 -7.951,-11.096 -1.771,-1.742 -4.2,-3.019 -7.286,-3.831 -4.577,1.004 -7.633,1.506 -9.168,1.506 -1.27,0 -2.381,-0.148 -3.334,-0.443 -0.952,-0.296 -1.428,-0.635 -1.428,-1.019 0,-0.782 1.949,-1.174 5.847,-1.174 2.288,0 4.68,0.229 7.175,0.687 2.879,-0.458 5.145,-0.687 6.799,-0.687 5.36,0 9.896,1.684 13.609,5.05 3.713,3.366 5.57,7.47 5.57,12.314 0,2.627 -0.635,5.123 -1.904,7.485 3.351,3.396 6.813,5.094 10.386,5.094 1.861,0 3.355,-0.565 4.485,-1.693 1.129,-1.128 1.694,-2.621 1.694,-4.479 0,-1.21 -0.17,-2.264 -0.509,-3.164 -0.03,-0.088 -0.045,-0.184 -0.045,-0.287 0,-0.089 0.045,-0.133 0.133,-0.133 0.163,0 0.333,0.417 0.509,1.25 0.178,0.833 0.267,1.626 0.267,2.378 C 1.728,-2.776 1.151,-1.202 0,0 Z m -17.897,-19.967 c -3.503,-5.477 -8.085,-8.216 -13.745,-8.216 -2.113,0 -4.108,0.199 -5.985,0.598 4.444,1.24 7.817,2.886 10.121,4.939 2.229,2.007 4.385,5.292 6.467,9.855 1.58,3.44 3.366,6.297 5.359,8.57 0.798,-1.653 1.196,-3.425 1.196,-5.315 0,-3.41 -1.138,-6.887 -3.413,-10.431 z m -28.124,-8.172 c -3.868,0 -5.802,0.259 -5.802,0.775 0,0.34 0.886,0.51 2.657,0.51 2.008,0 5.05,-0.288 9.125,-0.864 -1.772,-0.281 -3.765,-0.421 -5.98,-0.421 z"
             style="fill:none;stroke:#ffffff;stroke-width:0.5;stroke-linecap:butt;stroke-linejoin:miter;stroke-miterlimit:10;stroke-dasharray:none;stroke-opacity:1"
             id="path210" /></g><g
           id="g212"
           transform="translate(274.981,405.4424)"><path
             d="m 0,0 c -0.502,0 -0.982,-0.225 -1.439,-0.675 -0.458,-0.451 -0.687,-0.919 -0.687,-1.407 0,-0.664 0.332,-0.996 0.997,-0.996 0.516,0 0.992,0.224 1.428,0.675 0.435,0.45 0.653,0.934 0.653,1.451 C 0.952,-0.317 0.635,0 0,0 Z m 1.141,-9.977 c -0.075,0 -0.148,-0.074 -0.223,-0.221 -3.311,-4.688 -5.625,-7.032 -6.94,-7.032 -0.695,0 -1.043,0.332 -1.043,0.997 0,0.649 0.362,1.572 1.086,2.768 l 5.026,8.261 c -0.723,-0.104 -1.284,-0.155 -1.683,-0.155 -0.265,0 -0.627,0.051 -1.085,0.155 l -3.455,-5.869 c -1.018,-1.742 -1.528,-3.042 -1.528,-3.898 0,-0.738 0.233,-1.355 0.699,-1.849 0.465,-0.494 1.046,-0.742 1.74,-0.742 1.463,0 3.584,1.929 6.364,5.789 l 0.953,1.308 c 0.133,0.193 0.206,0.311 0.221,0.355 0,0.089 -0.044,0.133 -0.132,0.133 z"
             style="fill:none;stroke:#ffffff;stroke-width:0.5;stroke-linecap:butt;stroke-linejoin:miter;stroke-miterlimit:10;stroke-dasharray:none;stroke-opacity:1"
             id="path214" /></g><g
           id="g216"
           transform="translate(291.7349,395.4653)"><path
             d="m 0,0 c -0.074,0 -0.155,-0.074 -0.244,-0.221 -1.345,-1.982 -2.669,-3.649 -3.97,-5.002 -1.301,-1.353 -2.247,-2.03 -2.839,-2.03 -0.576,0 -0.864,0.347 -0.864,1.041 0,0.723 0.679,2.222 2.037,4.496 l 3.92,6.489 C -2.595,4.669 -3.111,4.618 -3.51,4.618 c -0.34,0 -0.731,0.051 -1.174,0.155 L -5.813,2.625 c 0.118,0.413 0.177,0.745 0.177,0.996 0,0.886 -0.458,1.329 -1.373,1.329 -1.078,0 -2.495,-0.487 -4.252,-1.462 -4.002,-2.185 -6.002,-4.695 -6.002,-7.53 0,-1.019 0.265,-1.864 0.797,-2.535 0.531,-0.672 1.189,-1.008 1.971,-1.008 0.738,0 1.498,0.362 2.281,1.085 0.783,0.723 1.912,2.119 3.389,4.186 -0.473,-0.93 -0.709,-1.794 -0.709,-2.591 0,-0.768 0.214,-1.407 0.643,-1.916 0.428,-0.51 0.983,-0.764 1.663,-0.764 1.005,0 2.38,1.05 4.124,3.149 2.158,2.559 3.237,3.993 3.237,4.303 C 0.133,-0.044 0.089,0 0,0 Z m -9.047,-2.181 c -2.51,-3.381 -4.274,-5.072 -5.293,-5.072 -0.856,0 -1.285,0.48 -1.285,1.44 0,1.639 1.104,3.787 3.312,6.444 2.207,2.658 3.989,3.987 5.348,3.987 0.664,0 0.997,-0.362 0.997,-1.085 0,-1.034 -1.027,-2.939 -3.079,-5.714 z"
             style="fill:none;stroke:#ffffff;stroke-width:0.5;stroke-linecap:butt;stroke-linejoin:miter;stroke-miterlimit:10;stroke-dasharray:none;stroke-opacity:1"
             id="path218" /></g><g
           id="g220"
           transform="translate(302.4429,410.625)"><path
             d="m 0,0 c -0.458,0 -0.886,0.059 -1.285,0.177 l -9.168,-14.705 c -1.418,-2.274 -2.127,-3.965 -2.127,-5.072 0,-0.93 0.241,-1.687 0.721,-2.27 0.479,-0.583 1.103,-0.875 1.871,-0.875 1.639,0 3.513,0.805 5.625,2.414 2.835,2.156 4.252,4.348 4.252,6.578 0,1.019 -0.262,1.863 -0.786,2.536 -0.524,0.671 -1.2,1.007 -2.026,1.007 -0.695,0 -1.426,-0.362 -2.193,-1.085 -0.768,-0.724 -1.926,-2.148 -3.477,-4.274 L 1.351,0.133 C 0.805,0.044 0.354,0 0,0 Z m -4.994,-18.437 c -2.178,-2.65 -3.931,-3.976 -5.26,-3.976 -0.768,0 -1.152,0.392 -1.152,1.174 0,0.916 0.975,2.702 2.924,5.36 2.598,3.558 4.437,5.337 5.514,5.337 0.827,0 1.24,-0.495 1.24,-1.484 0,-1.624 -1.088,-3.761 -3.266,-6.411 z"
             style="fill:none;stroke:#ffffff;stroke-width:0.5;stroke-linecap:butt;stroke-linejoin:miter;stroke-miterlimit:10;stroke-dasharray:none;stroke-opacity:1"
             id="path222" /></g><g
           id="g224"
           transform="translate(314.9224,395.4434)"><path
             d="m 0,0 c -0.118,0 -0.266,-0.118 -0.443,-0.354 -3.385,-4.555 -6.244,-6.833 -8.579,-6.833 -1.375,0 -2.062,0.635 -2.062,1.905 0,1.019 0.501,2.288 1.505,3.809 3.248,0.65 5.567,1.348 6.954,2.093 1.388,0.745 2.083,1.65 2.083,2.713 0,0.458 -0.189,0.845 -0.565,1.163 -0.377,0.317 -0.831,0.476 -1.362,0.476 -1.226,0 -2.813,-0.532 -4.762,-1.595 -3.706,-2.023 -5.559,-4.362 -5.559,-7.02 0,-1.122 0.351,-2.056 1.053,-2.802 0.702,-0.745 1.57,-1.118 2.605,-1.118 2.187,0 4.81,1.887 7.869,5.661 l 0.952,1.194 c 0.267,0.339 0.399,0.531 0.399,0.575 C 0.088,-0.059 0.059,-0.015 0,0 Z m -3.998,1.151 c -1.476,-0.996 -3.277,-1.768 -5.403,-2.314 1.225,1.728 2.476,3.134 3.754,4.219 1.276,1.086 2.306,1.628 3.089,1.628 0.516,0 0.775,-0.236 0.775,-0.709 0,-0.886 -0.738,-1.827 -2.215,-2.824 z"
             style="fill:none;stroke:#ffffff;stroke-width:0.5;stroke-linecap:butt;stroke-linejoin:miter;stroke-miterlimit:10;stroke-dasharray:none;stroke-opacity:1"
             id="path226" /></g></g></g><text
       transform="matrix(1,0,0,-1,252.9697,344.5596)"
       style="font-variant:normal;font-weight:normal;font-stretch:normal;font-size:35.979px;font-family:'Edwardian Script ITC';-inkscape-font-specification:EdwardianScriptITC;writing-mode:lr-tb;fill:#ffffff;fill-opacity:1;fill-rule:nonzero;stroke:none"
       id="text230"><tspan
         x="0 27.66785 33.712322"
         y="0"
         sodipodi:role="line"
         id="tspan228">Pie</tspan></text><g
       id="g232"><g
         id="g234"
         clip-path="url(#clipPath238)"><g
           id="g240"
           transform="translate(295.2466,366.5386)"><path
             d="m 0,0 c -0.955,0.936 -2.216,1.404 -3.786,1.404 -2.003,0 -4.075,-0.668 -6.219,-2.003 -2.342,1.534 -5.235,2.302 -8.678,2.302 -4.533,0 -8.67,-1.368 -12.412,-4.102 -3.742,-2.735 -5.613,-5.76 -5.613,-9.075 0,-1.639 0.489,-2.948 1.467,-3.926 0.978,-0.978 2.281,-1.467 3.909,-1.467 2.495,0 5.024,1.16 7.589,3.479 2.565,2.319 3.847,4.614 3.847,6.887 0,1.861 -1.007,2.793 -3.021,2.793 -2.108,0 -4.164,-0.866 -6.166,-2.598 -2.003,-1.733 -3.004,-3.511 -3.004,-5.337 0,-0.737 0.193,-1.36 0.582,-1.869 0.387,-0.509 0.863,-0.763 1.428,-0.763 0.223,0 0.335,0.046 0.335,0.14 0,0.105 -0.1,0.158 -0.3,0.158 -0.377,0 -0.707,0.152 -0.989,0.456 -0.283,0.305 -0.424,0.667 -0.424,1.089 0,1.708 0.998,3.536 2.995,5.485 1.997,1.948 3.868,2.923 5.613,2.923 1.745,0 2.618,-0.85 2.618,-2.548 0,-2.132 -1.256,-4.328 -3.769,-6.588 -2.512,-2.26 -4.945,-3.39 -7.299,-3.39 -1.44,0 -2.582,0.386 -3.426,1.159 -0.843,0.773 -1.265,1.815 -1.265,3.127 0,2.588 1.5,5.347 4.498,8.274 3.654,3.573 7.952,5.359 12.895,5.359 3.536,0 6.219,-0.779 8.046,-2.337 -1.125,-0.773 -2.489,-2.055 -4.094,-3.847 -1.604,-1.792 -2.998,-3.578 -4.181,-5.358 -2.365,-3.608 -3.9,-5.88 -4.603,-6.817 -0.644,-0.866 -1.423,-1.716 -2.336,-2.547 -2.085,-1.898 -4.409,-2.846 -6.974,-2.846 -1.453,0 -2.656,0.322 -3.611,0.966 -0.954,0.644 -1.431,1.452 -1.431,2.424 0,0.621 0.093,0.931 0.28,0.931 0.059,0 0.082,-0.128 0.071,-0.386 -0.024,-0.632 0.269,-0.948 0.878,-0.948 0.352,0 0.647,0.14 0.887,0.421 0.24,0.281 0.361,0.621 0.361,1.019 0,0.796 -0.358,1.195 -1.072,1.195 -0.492,0 -0.917,-0.217 -1.274,-0.65 -0.357,-0.434 -0.536,-0.949 -0.536,-1.547 0,-1.077 0.521,-1.976 1.564,-2.696 1.042,-0.721 2.348,-1.08 3.918,-1.08 1.92,0 4.104,0.597 6.553,1.792 2.072,1.03 3.683,2.184 4.831,3.461 1.147,1.276 2.412,3.36 3.794,6.253 2.284,4.779 4.697,8.117 7.238,10.014 0.984,-1.078 1.476,-2.301 1.476,-3.671 0,-1.594 -0.477,-2.964 -1.43,-4.112 -0.954,-1.148 -2.097,-1.721 -3.43,-1.721 -0.738,0 -1.469,0.207 -2.194,0.622 -0.129,0.072 -0.222,0.107 -0.281,0.107 -0.07,0 -0.117,-0.035 -0.14,-0.106 0,-0.224 0.363,-0.463 1.088,-0.717 0.725,-0.253 1.404,-0.38 2.036,-0.38 1.615,0 3.025,0.556 4.23,1.669 1.204,1.112 1.807,2.418 1.807,3.917 0,1.78 -0.878,3.373 -2.635,4.779 2.061,1.276 4.064,1.914 6.009,1.914 1.44,0 2.6,-0.447 3.478,-1.342 0.878,-0.895 1.317,-2.079 1.317,-3.553 0,-0.948 -0.155,-1.831 -0.465,-2.65 -0.024,-0.07 -0.035,-0.123 -0.035,-0.158 0,-0.117 0.059,-0.176 0.176,-0.176 0.15,0 0.306,0.363 0.468,1.088 0.162,0.726 0.243,1.393 0.243,2.001 C 1.432,-2.17 0.955,-0.936 0,0 Z"
             style="fill:none;stroke:#ffffff;stroke-width:2;stroke-linecap:butt;stroke-linejoin:miter;stroke-miterlimit:10;stroke-dasharray:none;stroke-opacity:1"
             id="path242" /></g><g
           id="g244"
           transform="translate(288.9136,358.0869)"><path
             d="m 0,0 c -0.398,0 -0.779,-0.179 -1.142,-0.536 -0.363,-0.357 -0.545,-0.729 -0.545,-1.115 0,-0.528 0.264,-0.791 0.791,-0.791 0.41,0 0.788,0.178 1.133,0.536 0.346,0.357 0.518,0.74 0.518,1.151 C 0.755,-0.252 0.503,0 0,0 Z m 0.905,-7.915 c -0.059,0 -0.117,-0.058 -0.176,-0.175 -2.627,-3.719 -4.463,-5.578 -5.506,-5.578 -0.552,0 -0.827,0.264 -0.827,0.791 0,0.515 0.287,1.247 0.861,2.196 l 3.988,6.553 c -0.574,-0.082 -1.019,-0.123 -1.335,-0.123 -0.211,0 -0.498,0.041 -0.861,0.123 l -2.741,-4.656 c -0.808,-1.382 -1.212,-2.413 -1.212,-3.092 0,-0.586 0.184,-1.075 0.554,-1.467 0.37,-0.392 0.829,-0.589 1.381,-0.589 1.16,0 2.843,1.531 5.047,4.593 l 0.756,1.038 c 0.106,0.152 0.165,0.246 0.176,0.281 0,0.07 -0.035,0.105 -0.105,0.105 z"
             style="fill:none;stroke:#ffffff;stroke-width:2;stroke-linecap:butt;stroke-linejoin:miter;stroke-miterlimit:10;stroke-dasharray:none;stroke-opacity:1"
             id="path246" /></g><g
           id="g248"
           transform="translate(298.7432,350.1548)"><path
             d="m 0,0 c -0.094,0 -0.211,-0.093 -0.352,-0.281 -2.685,-3.613 -4.953,-5.42 -6.805,-5.42 -1.091,0 -1.636,0.504 -1.636,1.511 0,0.808 0.398,1.815 1.195,3.022 2.576,0.515 4.415,1.068 5.516,1.66 1.101,0.591 1.651,1.309 1.651,2.152 0,0.363 -0.149,0.67 -0.447,0.922 -0.299,0.252 -0.66,0.378 -1.081,0.378 -0.972,0 -2.231,-0.422 -3.777,-1.265 -2.94,-1.604 -4.41,-3.461 -4.41,-5.569 0,-0.89 0.279,-1.631 0.835,-2.222 C -8.754,-5.703 -8.065,-6 -7.245,-6 c 1.735,0 3.816,1.498 6.243,4.492 l 0.755,0.946 c 0.211,0.27 0.317,0.421 0.317,0.457 C 0.07,-0.047 0.046,-0.012 0,0 Z m -3.171,0.914 c -1.171,-0.791 -2.6,-1.403 -4.287,-1.836 0.972,1.37 1.965,2.485 2.978,3.346 1.013,0.861 1.83,1.292 2.451,1.292 0.409,0 0.614,-0.188 0.614,-0.562 0,-0.703 -0.585,-1.45 -1.756,-2.24 z"
             style="fill:none;stroke:#ffffff;stroke-width:2;stroke-linecap:butt;stroke-linejoin:miter;stroke-miterlimit:10;stroke-dasharray:none;stroke-opacity:1"
             id="path250" /></g><g
           id="g252"
           transform="translate(330.0039,456.9613)"><path
             d="m 0,0 c 0,-7.075 -3.267,-12.81 -7.297,-12.81 -4.031,0 -7.298,5.735 -7.298,12.81 0,7.075 3.267,12.81 7.298,12.81 C -3.267,12.81 0,7.075 0,0"
             style="fill:#32aa4b;fill-opacity:1;fill-rule:nonzero;stroke:none"
             id="path254" /></g><g
           id="g256"
           transform="translate(330.0039,456.9613)"><path
             d="m 0,0 c 0,-7.075 -3.267,-12.81 -7.297,-12.81 -4.031,0 -7.298,5.735 -7.298,12.81 0,7.075 3.267,12.81 7.298,12.81 C -3.267,12.81 0,7.075 0,0 Z"
             style="fill:none;stroke:#ffffff;stroke-width:1;stroke-linecap:butt;stroke-linejoin:miter;stroke-miterlimit:10;stroke-dasharray:none;stroke-opacity:1"
             id="path258" /></g><g
           id="g260"
           transform="translate(344.3246,453.1397)"><path
             d="m 0,0 c 0,-5.345 -2.469,-9.679 -5.514,-9.679 -3.045,0 -5.513,4.334 -5.513,9.679 0,5.345 2.468,9.679 5.513,9.679 C -2.469,9.679 0,5.345 0,0"
             style="fill:#32aa4b;fill-opacity:1;fill-rule:nonzero;stroke:none"
             id="path262" /></g><g
           id="g264"
           transform="translate(344.3246,453.1397)"><path
             d="m 0,0 c 0,-5.345 -2.469,-9.679 -5.514,-9.679 -3.045,0 -5.513,4.334 -5.513,9.679 0,5.345 2.468,9.679 5.513,9.679 C -2.469,9.679 0,5.345 0,0 Z"
             style="fill:none;stroke:#ffffff;stroke-width:1;stroke-linecap:butt;stroke-linejoin:miter;stroke-miterlimit:10;stroke-dasharray:none;stroke-opacity:1"
             id="path266" /></g><g
           id="g268"
           transform="translate(357.853,446.9516)"><path
             d="m 0,0 c 0,-5.076 -2.344,-9.191 -5.236,-9.191 -2.892,0 -5.236,4.115 -5.236,9.191 0,5.076 2.344,9.191 5.236,9.191 C -2.344,9.191 0,5.076 0,0"
             style="fill:#32aa4b;fill-opacity:1;fill-rule:nonzero;stroke:none"
             id="path270" /></g><g
           id="g272"
           transform="translate(357.853,446.9516)"><path
             d="m 0,0 c 0,-5.076 -2.344,-9.191 -5.236,-9.191 -2.892,0 -5.236,4.115 -5.236,9.191 0,5.076 2.344,9.191 5.236,9.191 C -2.344,9.191 0,5.076 0,0 Z"
             style="fill:none;stroke:#ffffff;stroke-width:1;stroke-linecap:butt;stroke-linejoin:miter;stroke-miterlimit:10;stroke-dasharray:none;stroke-opacity:1"
             id="path274" /></g><g
           id="g276"
           transform="translate(367.6197,435.7312)"><path
             d="m 0,0 c 0,-3.956 -1.827,-7.162 -4.08,-7.162 -2.253,0 -4.08,3.206 -4.08,7.162 0,3.956 1.827,7.162 4.08,7.162 C -1.827,7.162 0,3.956 0,0"
             style="fill:#32aa4b;fill-opacity:1;fill-rule:nonzero;stroke:none"
             id="path278" /></g><g
           id="g280"
           transform="translate(367.6197,435.7312)"><path
             d="m 0,0 c 0,-3.956 -1.827,-7.162 -4.08,-7.162 -2.253,0 -4.08,3.206 -4.08,7.162 0,3.956 1.827,7.162 4.08,7.162 C -1.827,7.162 0,3.956 0,0 Z"
             style="fill:none;stroke:#ffffff;stroke-width:1;stroke-linecap:butt;stroke-linejoin:miter;stroke-miterlimit:10;stroke-dasharray:none;stroke-opacity:1"
             id="path282" /></g><g
           id="g284"
           transform="translate(377.3215,427.1456)"><path
             d="m 0,0 c 0,-3.169 -1.464,-5.739 -3.269,-5.739 -1.806,0 -3.269,2.57 -3.269,5.739 0,3.169 1.463,5.739 3.269,5.739 C -1.464,5.739 0,3.169 0,0"
             style="fill:#32aa4b;fill-opacity:1;fill-rule:nonzero;stroke:none"
             id="path286" /></g><g
           id="g288"
           transform="translate(377.3215,427.1456)"><path
             d="m 0,0 c 0,-3.169 -1.464,-5.739 -3.269,-5.739 -1.806,0 -3.269,2.57 -3.269,5.739 0,3.169 1.463,5.739 3.269,5.739 C -1.464,5.739 0,3.169 0,0 Z"
             style="fill:none;stroke:#ffffff;stroke-width:1;stroke-linecap:butt;stroke-linejoin:miter;stroke-miterlimit:10;stroke-dasharray:none;stroke-opacity:1"
             id="path290" /></g><g
           id="g292"
           transform="translate(345.2395,434.6184)"><path
             d="m 0,0 c -0.956,0.249 -1.951,1.017 -3.018,1.644 -1.138,0.668 -2.331,1.12 -3.612,1.37 -0.353,0.069 -0.698,0.147 -1.041,0.276 -3.349,1.265 -6.736,1.739 -10.087,1.117 -1.787,-0.332 -3.215,-1.222 -4.351,-2.475 -0.569,-0.627 -0.801,-1.421 -1.367,-2.028 -0.666,-0.714 -0.742,-1.627 -0.847,-2.534 -0.008,-0.064 -0.005,-0.133 -0.029,-0.19 -0.578,-1.344 -0.483,-2.819 -0.55,-4.266 -0.123,-2.67 0.593,-5.299 1.426,-7.925 0.376,-1.183 0.883,-2.337 1.354,-3.5 0.669,-1.657 1.661,-3.202 2.372,-4.837 0.879,-2.02 1.441,-4.072 1.557,-6.163 0.077,-1.396 -0.043,-2.77 -0.243,-4.129 -0.013,-0.089 -0.063,-0.17 -0.096,-0.255 -0.448,-1.135 -0.941,-2.255 -1.331,-3.411 -0.354,-1.048 -1.042,-1.903 -1.638,-2.814 -0.744,-1.138 -1.601,-2.209 -2.558,-3.196 -0.902,-0.93 -1.762,-1.895 -2.748,-2.764 -1.873,-1.652 -3.874,-3.18 -5.892,-4.687 -1.192,-0.891 -2.409,-1.755 -3.579,-2.668 -1.43,-1.115 -2.705,-2.349 -3.72,-3.793 -0.343,-0.488 -0.736,-0.945 -1.106,-1.416 -0.024,-0.03 -0.064,-0.055 -0.073,-0.09 -0.282,-1.068 -1.177,-1.844 -1.466,-2.917 -0.168,-0.625 -0.462,-1.213 -0.702,-1.816 -0.252,-0.63 -0.49,-1.254 -0.511,-1.965 -0.014,-0.473 -0.333,-0.88 -0.419,-1.361 -0.388,-2.178 -0.477,-4.393 0.086,-6.638 0.494,-1.973 1.435,-3.846 2.919,-5.502 1.184,-1.322 2.577,-2.443 4.141,-3.418 1.049,-0.654 2.163,-1.196 3.235,-1.803 0.877,-0.497 1.879,-0.821 2.9,-1.039 1.167,-0.249 2.327,-0.403 3.497,-0.481 1.158,-0.077 2.248,0.122 3.3,0.39 2.139,0.543 4,1.518 5.554,2.85 1.272,1.09 2.403,2.303 3.444,3.587 0.633,0.779 1.211,1.601 1.673,2.451 0.541,0.999 1.259,1.899 1.662,2.987 1.277,3.445 2.673,6.846 4.017,10.266 0.109,0.277 0.258,0.526 0.456,0.753 0.186,0.215 0.314,0.462 0.434,0.719 0.494,1.062 1.12,2.056 1.791,3.025 0.421,0.608 0.832,1.221 1.222,1.848 0.292,0.472 0.704,0.878 1.006,1.346 0.908,1.41 2.072,2.646 3.176,3.92 1.288,1.485 2.822,2.76 4.433,3.964 1.557,1.163 3.053,2.386 4.47,3.68 1.843,1.685 3.607,3.434 5.203,5.313 1.002,1.179 1.965,2.397 2.749,3.702 0.437,0.727 0.997,1.408 1.255,2.246 0.27,0.88 0.645,1.727 1.004,2.576 0.615,1.456 1.059,2.946 1.24,4.549 0.169,1.499 0.149,3.002 -0.071,4.51 -0.204,1.398 -0.664,2.783 -1.316,4.14 -0.537,1.119 -1.214,2.181 -1.793,3.28 -0.381,0.723 -0.991,1.341 -1.538,1.979 -0.765,0.894 -1.523,1.8 -2.415,2.605 -1.366,1.235 -2.865,2.339 -4.327,3.48 C 7.713,-4.399 6.21,-3.384 4.663,-2.45 3.251,-1.599 1.884,-0.637 0,0"
             style="fill:#94c11f;fill-opacity:1;fill-rule:nonzero;stroke:none"
             id="path294" /></g><g
           id="g296"
           transform="translate(345.2395,434.6184)"><path
             d="m 0,0 c -0.956,0.249 -1.951,1.017 -3.018,1.644 -1.138,0.668 -2.331,1.12 -3.612,1.37 -0.353,0.069 -0.698,0.147 -1.041,0.276 -3.349,1.265 -6.736,1.739 -10.087,1.117 -1.787,-0.332 -3.215,-1.222 -4.351,-2.475 -0.569,-0.627 -0.801,-1.421 -1.367,-2.028 -0.666,-0.714 -0.742,-1.627 -0.847,-2.534 -0.008,-0.064 -0.005,-0.133 -0.029,-0.19 -0.578,-1.344 -0.483,-2.819 -0.55,-4.266 -0.123,-2.67 0.593,-5.299 1.426,-7.925 0.376,-1.183 0.883,-2.337 1.354,-3.5 0.669,-1.657 1.661,-3.202 2.372,-4.837 0.879,-2.02 1.441,-4.072 1.557,-6.163 0.077,-1.396 -0.043,-2.77 -0.243,-4.129 -0.013,-0.089 -0.063,-0.17 -0.096,-0.255 -0.448,-1.135 -0.941,-2.255 -1.331,-3.411 -0.354,-1.048 -1.042,-1.903 -1.638,-2.814 -0.744,-1.138 -1.601,-2.209 -2.558,-3.196 -0.902,-0.93 -1.762,-1.895 -2.748,-2.764 -1.873,-1.652 -3.874,-3.18 -5.892,-4.687 -1.192,-0.891 -2.409,-1.755 -3.579,-2.668 -1.43,-1.115 -2.705,-2.349 -3.72,-3.793 -0.343,-0.488 -0.736,-0.945 -1.106,-1.416 -0.024,-0.03 -0.064,-0.055 -0.073,-0.09 -0.282,-1.068 -1.177,-1.844 -1.466,-2.917 -0.168,-0.625 -0.462,-1.213 -0.702,-1.816 -0.252,-0.63 -0.49,-1.254 -0.511,-1.965 -0.014,-0.473 -0.333,-0.88 -0.419,-1.361 -0.388,-2.178 -0.477,-4.393 0.086,-6.638 0.494,-1.973 1.435,-3.846 2.919,-5.502 1.184,-1.322 2.577,-2.443 4.141,-3.418 1.049,-0.654 2.163,-1.196 3.235,-1.803 0.877,-0.497 1.879,-0.821 2.9,-1.039 1.167,-0.249 2.327,-0.403 3.497,-0.481 1.158,-0.077 2.248,0.122 3.3,0.39 2.139,0.543 4,1.518 5.554,2.85 1.272,1.09 2.403,2.303 3.444,3.587 0.633,0.779 1.211,1.601 1.673,2.451 0.541,0.999 1.259,1.899 1.662,2.987 1.277,3.445 2.673,6.846 4.017,10.266 0.109,0.277 0.258,0.526 0.456,0.753 0.186,0.215 0.314,0.462 0.434,0.719 0.494,1.062 1.12,2.056 1.791,3.025 0.421,0.608 0.832,1.221 1.222,1.848 0.292,0.472 0.704,0.878 1.006,1.346 0.908,1.41 2.072,2.646 3.176,3.92 1.288,1.485 2.822,2.76 4.433,3.964 1.557,1.163 3.053,2.386 4.47,3.68 1.843,1.685 3.607,3.434 5.203,5.313 1.002,1.179 1.965,2.397 2.749,3.702 0.437,0.727 0.997,1.408 1.255,2.246 0.27,0.88 0.645,1.727 1.004,2.576 0.615,1.456 1.059,2.946 1.24,4.549 0.169,1.499 0.149,3.002 -0.071,4.51 -0.204,1.398 -0.664,2.783 -1.316,4.14 -0.537,1.119 -1.214,2.181 -1.793,3.28 -0.381,0.723 -0.991,1.341 -1.538,1.979 -0.765,0.894 -1.523,1.8 -2.415,2.605 -1.366,1.235 -2.865,2.339 -4.327,3.48 C 7.713,-4.399 6.21,-3.384 4.663,-2.45 3.251,-1.599 1.884,-0.637 0,0 Z"
             style="fill:none;stroke:#ffffff;stroke-width:2;stroke-linecap:butt;stroke-linejoin:miter;stroke-miterlimit:10;stroke-dasharray:none;stroke-opacity:1"
             id="path298" /></g><g
           id="g300"
           transform="translate(393.153,197.7193)"><path
             d="m 0,0 c 0,-42.937 -34.807,-77.744 -77.744,-77.744 -42.936,0 -77.744,34.807 -77.744,77.744 0,42.937 34.808,77.744 77.744,77.744 C -34.807,77.744 0,42.937 0,0"
             style="fill:#94c11f;fill-opacity:1;fill-rule:nonzero;stroke:none"
             id="path302" /></g><g
           id="g304"
           transform="translate(393.153,197.7193)"><path
             d="m 0,0 c 0,-42.937 -34.807,-77.744 -77.744,-77.744 -42.936,0 -77.744,34.807 -77.744,77.744 0,42.937 34.808,77.744 77.744,77.744 C -34.807,77.744 0,42.937 0,0 Z"
             style="fill:none;stroke:#009640;stroke-width:1;stroke-linecap:butt;stroke-linejoin:miter;stroke-miterlimit:10;stroke-dasharray:none;stroke-opacity:1"
             id="path306" /></g><g
           id="g308"
           transform="translate(377.6042,197.7193)"><path
             d="m 0,0 c 0,-34.349 -27.846,-62.195 -62.195,-62.195 -34.349,0 -62.195,27.846 -62.195,62.195 0,34.349 27.846,62.195 62.195,62.195 C -27.846,62.195 0,34.349 0,0"
             style="fill:#2aaae1;fill-opacity:1;fill-rule:nonzero;stroke:none"
             id="path310" /></g></g></g><text
       transform="matrix(1,0,0,-1,237.666,209.3896)"
       style="font-variant:normal;font-weight:normal;font-stretch:normal;font-size:45.3562px;font-family:'Edwardian Script ITC';-inkscape-font-specification:EdwardianScriptITC;writing-mode:lr-tb;fill:#ffffff;fill-opacity:1;fill-rule:nonzero;stroke:none"
       id="text314"><tspan
         x="0 38.416702 46.036545 61.639076 73.567757"
         y="0"
         sodipodi:role="line"
         id="tspan312">Diabe</tspan></text><g
       id="g316"><g
         id="g318"
         clip-path="url(#clipPath322)"><g
           id="g324"
           transform="translate(292.811,236.8862)"><path
             d="m 0,0 c -1.152,1.202 -2.658,1.803 -4.518,1.803 -3.721,0 -7.382,-1.66 -10.984,-4.983 -2.467,3.588 -6.128,5.382 -10.985,5.382 -5.714,0 -10.838,-1.82 -15.37,-5.459 -4.533,-3.64 -6.799,-7.755 -6.799,-12.347 0,-2.141 0.664,-3.894 1.993,-5.26 1.329,-1.365 3.019,-2.048 5.072,-2.048 2.982,0 6.027,1.558 9.135,4.673 3.108,3.115 4.662,6.164 4.662,9.146 0,1.152 -0.336,2.086 -1.008,2.802 -0.672,0.716 -1.547,1.074 -2.624,1.074 -0.842,0 -1.558,-0.237 -2.148,-0.709 -0.591,-0.472 -0.886,-1.041 -0.886,-1.705 0,-0.974 0.45,-1.462 1.351,-1.462 0.502,0 0.937,0.181 1.306,0.543 0.369,0.362 0.554,0.786 0.554,1.273 0,0.665 -0.362,0.997 -1.085,0.997 h -0.31 c -0.059,-0.03 -0.133,-0.044 -0.222,-0.044 -0.162,0 -0.243,0.051 -0.243,0.155 0,0.354 0.546,0.531 1.639,0.531 0.959,0 1.734,-0.325 2.325,-0.974 0.59,-0.65 0.886,-1.506 0.886,-2.569 0,-2.806 -1.517,-5.729 -4.551,-8.77 -3.034,-3.042 -5.961,-4.563 -8.781,-4.563 -1.669,0 -3.009,0.48 -4.02,1.44 -1.012,0.959 -1.517,2.237 -1.517,3.831 0,2.008 0.628,4.208 1.882,6.6 1.255,2.392 2.931,4.577 5.028,6.556 4.163,3.926 8.74,5.89 13.731,5.89 4.828,0 8.319,-1.816 10.475,-5.448 -2.584,-2.436 -4.954,-5.381 -7.109,-8.836 -3.573,-5.7 -6.223,-9.398 -7.951,-11.096 -1.771,-1.742 -4.2,-3.019 -7.286,-3.831 -4.577,1.004 -7.633,1.506 -9.168,1.506 -1.27,0 -2.381,-0.148 -3.334,-0.443 -0.952,-0.296 -1.428,-0.635 -1.428,-1.019 0,-0.782 1.949,-1.174 5.847,-1.174 2.288,0 4.68,0.229 7.175,0.687 2.879,-0.458 5.145,-0.687 6.799,-0.687 5.36,0 9.896,1.684 13.609,5.05 3.713,3.366 5.57,7.47 5.57,12.314 0,2.627 -0.635,5.123 -1.904,7.485 3.351,3.396 6.813,5.094 10.386,5.094 1.861,0 3.355,-0.565 4.485,-1.693 1.129,-1.128 1.694,-2.621 1.694,-4.479 0,-1.21 -0.17,-2.264 -0.509,-3.164 -0.03,-0.088 -0.045,-0.184 -0.045,-0.287 0,-0.089 0.045,-0.133 0.133,-0.133 0.163,0 0.333,0.417 0.509,1.25 0.178,0.833 0.267,1.626 0.267,2.378 C 1.728,-2.776 1.151,-1.202 0,0 Z m -17.897,-19.967 c -3.503,-5.477 -8.085,-8.216 -13.745,-8.216 -2.113,0 -4.108,0.199 -5.985,0.598 4.444,1.24 7.817,2.886 10.121,4.939 2.229,2.007 4.385,5.292 6.467,9.855 1.58,3.44 3.366,6.297 5.359,8.57 0.798,-1.653 1.196,-3.425 1.196,-5.315 0,-3.41 -1.138,-6.887 -3.413,-10.431 z m -28.124,-8.172 c -3.868,0 -5.802,0.259 -5.802,0.775 0,0.34 0.886,0.51 2.657,0.51 2.008,0 5.05,-0.288 9.125,-0.864 -1.772,-0.281 -3.765,-0.421 -5.98,-0.421 z"
             style="fill:none;stroke:#ffffff;stroke-width:0.5;stroke-linecap:butt;stroke-linejoin:miter;stroke-miterlimit:10;stroke-dasharray:none;stroke-opacity:1"
             id="path326" /></g><g
           id="g328"
           transform="translate(286.5215,226.4424)"><path
             d="m 0,0 c -0.502,0 -0.982,-0.225 -1.439,-0.675 -0.458,-0.451 -0.687,-0.919 -0.687,-1.407 0,-0.664 0.332,-0.996 0.997,-0.996 0.516,0 0.992,0.224 1.428,0.675 0.435,0.45 0.653,0.934 0.653,1.451 C 0.952,-0.317 0.635,0 0,0 Z m 1.141,-9.977 c -0.075,0 -0.148,-0.074 -0.223,-0.221 -3.311,-4.688 -5.625,-7.032 -6.94,-7.032 -0.695,0 -1.043,0.332 -1.043,0.997 0,0.649 0.362,1.572 1.086,2.768 l 5.026,8.261 c -0.723,-0.104 -1.284,-0.155 -1.683,-0.155 -0.265,0 -0.627,0.051 -1.085,0.155 l -3.455,-5.869 c -1.018,-1.742 -1.528,-3.042 -1.528,-3.898 0,-0.738 0.233,-1.355 0.699,-1.849 0.465,-0.494 1.046,-0.742 1.74,-0.742 1.463,0 3.584,1.929 6.364,5.789 l 0.953,1.308 c 0.133,0.193 0.206,0.311 0.221,0.355 0,0.089 -0.044,0.133 -0.132,0.133 z"
             style="fill:none;stroke:#ffffff;stroke-width:0.5;stroke-linecap:butt;stroke-linejoin:miter;stroke-miterlimit:10;stroke-dasharray:none;stroke-opacity:1"
             id="path330" /></g><g
           id="g332"
           transform="translate(303.2754,216.4653)"><path
             d="m 0,0 c -0.074,0 -0.155,-0.074 -0.244,-0.221 -1.345,-1.982 -2.669,-3.649 -3.97,-5.002 -1.301,-1.353 -2.247,-2.03 -2.839,-2.03 -0.576,0 -0.864,0.347 -0.864,1.041 0,0.723 0.679,2.222 2.037,4.496 l 3.92,6.489 C -2.595,4.669 -3.111,4.618 -3.51,4.618 c -0.34,0 -0.731,0.051 -1.174,0.155 L -5.813,2.625 c 0.118,0.413 0.177,0.745 0.177,0.996 0,0.886 -0.458,1.329 -1.373,1.329 -1.078,0 -2.495,-0.487 -4.252,-1.462 -4.002,-2.185 -6.002,-4.695 -6.002,-7.53 0,-1.019 0.265,-1.864 0.797,-2.535 0.531,-0.672 1.189,-1.008 1.971,-1.008 0.738,0 1.498,0.362 2.281,1.085 0.783,0.723 1.912,2.119 3.389,4.186 -0.473,-0.93 -0.709,-1.794 -0.709,-2.591 0,-0.768 0.214,-1.407 0.643,-1.916 0.428,-0.51 0.983,-0.764 1.663,-0.764 1.005,0 2.38,1.05 4.124,3.149 2.158,2.559 3.237,3.993 3.237,4.303 C 0.133,-0.044 0.089,0 0,0 Z m -9.047,-2.181 c -2.51,-3.381 -4.274,-5.072 -5.293,-5.072 -0.856,0 -1.285,0.48 -1.285,1.44 0,1.639 1.104,3.787 3.312,6.444 2.207,2.658 3.989,3.987 5.348,3.987 0.664,0 0.997,-0.362 0.997,-1.085 0,-1.034 -1.027,-2.939 -3.079,-5.714 z"
             style="fill:none;stroke:#ffffff;stroke-width:0.5;stroke-linecap:butt;stroke-linejoin:miter;stroke-miterlimit:10;stroke-dasharray:none;stroke-opacity:1"
             id="path334" /></g><g
           id="g336"
           transform="translate(313.9834,231.625)"><path
             d="m 0,0 c -0.458,0 -0.886,0.059 -1.285,0.177 l -9.168,-14.705 c -1.418,-2.274 -2.127,-3.965 -2.127,-5.072 0,-0.93 0.241,-1.687 0.721,-2.27 0.479,-0.583 1.103,-0.875 1.871,-0.875 1.639,0 3.513,0.805 5.625,2.414 2.835,2.156 4.252,4.348 4.252,6.578 0,1.019 -0.262,1.863 -0.786,2.536 -0.524,0.671 -1.2,1.007 -2.026,1.007 -0.695,0 -1.426,-0.362 -2.193,-1.085 -0.768,-0.724 -1.926,-2.148 -3.477,-4.274 L 1.351,0.133 C 0.805,0.044 0.354,0 0,0 Z m -4.994,-18.437 c -2.178,-2.65 -3.931,-3.976 -5.26,-3.976 -0.768,0 -1.152,0.392 -1.152,1.174 0,0.916 0.975,2.702 2.924,5.36 2.598,3.558 4.437,5.337 5.514,5.337 0.827,0 1.24,-0.495 1.24,-1.484 0,-1.624 -1.088,-3.761 -3.266,-6.411 z"
             style="fill:none;stroke:#ffffff;stroke-width:0.5;stroke-linecap:butt;stroke-linejoin:miter;stroke-miterlimit:10;stroke-dasharray:none;stroke-opacity:1"
             id="path338" /></g><g
           id="g340"
           transform="translate(326.4629,216.4434)"><path
             d="m 0,0 c -0.118,0 -0.266,-0.118 -0.443,-0.354 -3.385,-4.555 -6.244,-6.833 -8.579,-6.833 -1.375,0 -2.062,0.635 -2.062,1.905 0,1.019 0.501,2.288 1.505,3.809 3.248,0.65 5.567,1.348 6.954,2.093 1.388,0.745 2.083,1.65 2.083,2.713 0,0.458 -0.189,0.845 -0.565,1.163 -0.377,0.317 -0.831,0.476 -1.362,0.476 -1.226,0 -2.813,-0.532 -4.762,-1.595 -3.706,-2.023 -5.559,-4.362 -5.559,-7.02 0,-1.122 0.351,-2.056 1.053,-2.802 0.702,-0.745 1.57,-1.118 2.605,-1.118 2.187,0 4.81,1.887 7.869,5.661 l 0.952,1.194 c 0.267,0.339 0.399,0.531 0.399,0.575 C 0.088,-0.059 0.059,-0.015 0,0 Z m -3.998,1.151 c -1.476,-0.996 -3.277,-1.768 -5.403,-2.314 1.225,1.728 2.476,3.134 3.754,4.219 1.276,1.086 2.306,1.628 3.089,1.628 0.516,0 0.775,-0.236 0.775,-0.709 0,-0.886 -0.738,-1.827 -2.215,-2.824 z"
             style="fill:none;stroke:#ffffff;stroke-width:0.5;stroke-linecap:butt;stroke-linejoin:miter;stroke-miterlimit:10;stroke-dasharray:none;stroke-opacity:1"
             id="path342" /></g></g></g><text
       transform="matrix(1,0,0,-1,264.5103,165.5596)"
       style="font-variant:normal;font-weight:normal;font-stretch:normal;font-size:35.979px;font-family:'Edwardian Script ITC';-inkscape-font-specification:EdwardianScriptITC;writing-mode:lr-tb;fill:#ffffff;fill-opacity:1;fill-rule:nonzero;stroke:none"
       id="text346"><tspan
         x="0 27.66785 33.712322"
         y="0"
         sodipodi:role="line"
         id="tspan344">Pie</tspan></text><g
       id="g348"><g
         id="g350"
         clip-path="url(#clipPath354)"><g
           id="g356"
           transform="translate(341.5445,277.9613)"><path
             d="m 0,0 c 0,-7.075 -3.267,-12.81 -7.297,-12.81 -4.031,0 -7.298,5.735 -7.298,12.81 0,7.075 3.267,12.81 7.298,12.81 C -3.267,12.81 0,7.075 0,0"
             style="fill:#32aa4b;fill-opacity:1;fill-rule:nonzero;stroke:none"
             id="path358" /></g><g
           id="g360"
           transform="translate(341.5445,277.9613)"><path
             d="m 0,0 c 0,-7.075 -3.267,-12.81 -7.297,-12.81 -4.031,0 -7.298,5.735 -7.298,12.81 0,7.075 3.267,12.81 7.298,12.81 C -3.267,12.81 0,7.075 0,0 Z"
             style="fill:none;stroke:#ffffff;stroke-width:1;stroke-linecap:butt;stroke-linejoin:miter;stroke-miterlimit:10;stroke-dasharray:none;stroke-opacity:1"
             id="path362" /></g><g
           id="g364"
           transform="translate(355.8651,274.1397)"><path
             d="m 0,0 c 0,-5.345 -2.469,-9.679 -5.514,-9.679 -3.045,0 -5.513,4.334 -5.513,9.679 0,5.345 2.468,9.679 5.513,9.679 C -2.469,9.679 0,5.345 0,0"
             style="fill:#32aa4b;fill-opacity:1;fill-rule:nonzero;stroke:none"
             id="path366" /></g><g
           id="g368"
           transform="translate(355.8651,274.1397)"><path
             d="m 0,0 c 0,-5.345 -2.469,-9.679 -5.514,-9.679 -3.045,0 -5.513,4.334 -5.513,9.679 0,5.345 2.468,9.679 5.513,9.679 C -2.469,9.679 0,5.345 0,0 Z"
             style="fill:none;stroke:#ffffff;stroke-width:1;stroke-linecap:butt;stroke-linejoin:miter;stroke-miterlimit:10;stroke-dasharray:none;stroke-opacity:1"
             id="path370" /></g><g
           id="g372"
           transform="translate(369.3936,267.9516)"><path
             d="m 0,0 c 0,-5.076 -2.344,-9.191 -5.236,-9.191 -2.892,0 -5.236,4.115 -5.236,9.191 0,5.076 2.344,9.191 5.236,9.191 C -2.344,9.191 0,5.076 0,0"
             style="fill:#32aa4b;fill-opacity:1;fill-rule:nonzero;stroke:none"
             id="path374" /></g><g
           id="g376"
           transform="translate(369.3936,267.9516)"><path
             d="m 0,0 c 0,-5.076 -2.344,-9.191 -5.236,-9.191 -2.892,0 -5.236,4.115 -5.236,9.191 0,5.076 2.344,9.191 5.236,9.191 C -2.344,9.191 0,5.076 0,0 Z"
             style="fill:none;stroke:#ffffff;stroke-width:1;stroke-linecap:butt;stroke-linejoin:miter;stroke-miterlimit:10;stroke-dasharray:none;stroke-opacity:1"
             id="path378" /></g><g
           id="g380"
           transform="translate(379.1602,256.7312)"><path
             d="m 0,0 c 0,-3.956 -1.827,-7.162 -4.08,-7.162 -2.253,0 -4.08,3.206 -4.08,7.162 0,3.956 1.827,7.162 4.08,7.162 C -1.827,7.162 0,3.956 0,0"
             style="fill:#32aa4b;fill-opacity:1;fill-rule:nonzero;stroke:none"
             id="path382" /></g><g
           id="g384"
           transform="translate(379.1602,256.7312)"><path
             d="m 0,0 c 0,-3.956 -1.827,-7.162 -4.08,-7.162 -2.253,0 -4.08,3.206 -4.08,7.162 0,3.956 1.827,7.162 4.08,7.162 C -1.827,7.162 0,3.956 0,0 Z"
             style="fill:none;stroke:#ffffff;stroke-width:1;stroke-linecap:butt;stroke-linejoin:miter;stroke-miterlimit:10;stroke-dasharray:none;stroke-opacity:1"
             id="path386" /></g><g
           id="g388"
           transform="translate(388.862,248.1456)"><path
             d="m 0,0 c 0,-3.17 -1.464,-5.739 -3.269,-5.739 -1.806,0 -3.269,2.569 -3.269,5.739 0,3.169 1.463,5.739 3.269,5.739 C -1.464,5.739 0,3.169 0,0"
             style="fill:#32aa4b;fill-opacity:1;fill-rule:nonzero;stroke:none"
             id="path390" /></g><g
           id="g392"
           transform="translate(388.862,248.1456)"><path
             d="m 0,0 c 0,-3.17 -1.464,-5.739 -3.269,-5.739 -1.806,0 -3.269,2.569 -3.269,5.739 0,3.169 1.463,5.739 3.269,5.739 C -1.464,5.739 0,3.169 0,0 Z"
             style="fill:none;stroke:#ffffff;stroke-width:1;stroke-linecap:butt;stroke-linejoin:miter;stroke-miterlimit:10;stroke-dasharray:none;stroke-opacity:1"
             id="path394" /></g><g
           id="g396"
           transform="translate(356.78,255.6184)"><path
             d="m 0,0 c -0.956,0.249 -1.95,1.017 -3.018,1.644 -1.138,0.668 -2.331,1.12 -3.612,1.37 -0.353,0.069 -0.698,0.147 -1.041,0.276 -3.349,1.265 -6.736,1.739 -10.087,1.117 -1.787,-0.332 -3.215,-1.221 -4.351,-2.475 -0.569,-0.627 -0.801,-1.421 -1.367,-2.028 -0.666,-0.714 -0.742,-1.627 -0.847,-2.534 -0.008,-0.064 -0.005,-0.133 -0.029,-0.19 -0.578,-1.344 -0.483,-2.819 -0.55,-4.266 -0.123,-2.67 0.593,-5.299 1.426,-7.925 0.376,-1.183 0.883,-2.337 1.354,-3.5 0.669,-1.657 1.661,-3.202 2.372,-4.837 0.879,-2.02 1.441,-4.072 1.557,-6.163 0.077,-1.396 -0.043,-2.77 -0.243,-4.129 -0.013,-0.089 -0.063,-0.17 -0.096,-0.255 -0.448,-1.135 -0.941,-2.255 -1.331,-3.411 -0.354,-1.048 -1.042,-1.903 -1.638,-2.814 -0.744,-1.138 -1.601,-2.209 -2.558,-3.196 -0.902,-0.93 -1.762,-1.895 -2.748,-2.764 -1.873,-1.652 -3.874,-3.18 -5.892,-4.687 -1.192,-0.89 -2.409,-1.755 -3.579,-2.668 -1.429,-1.115 -2.705,-2.349 -3.72,-3.793 -0.343,-0.488 -0.736,-0.945 -1.106,-1.416 -0.024,-0.03 -0.064,-0.055 -0.073,-0.09 -0.282,-1.068 -1.177,-1.844 -1.466,-2.917 -0.168,-0.625 -0.462,-1.213 -0.702,-1.816 -0.252,-0.63 -0.49,-1.254 -0.511,-1.965 -0.014,-0.473 -0.333,-0.88 -0.419,-1.361 -0.388,-2.178 -0.477,-4.393 0.086,-6.638 0.494,-1.973 1.435,-3.846 2.919,-5.502 1.184,-1.322 2.577,-2.443 4.141,-3.418 1.049,-0.654 2.163,-1.196 3.235,-1.803 0.877,-0.497 1.879,-0.821 2.901,-1.039 1.166,-0.249 2.326,-0.403 3.496,-0.481 1.158,-0.077 2.248,0.122 3.3,0.39 2.139,0.543 4,1.518 5.554,2.85 1.272,1.09 2.403,2.303 3.445,3.587 0.632,0.779 1.21,1.601 1.672,2.451 0.541,0.999 1.259,1.899 1.662,2.987 1.277,3.445 2.673,6.846 4.017,10.266 0.109,0.277 0.258,0.526 0.456,0.753 0.186,0.215 0.314,0.462 0.434,0.719 0.494,1.062 1.12,2.056 1.791,3.025 0.421,0.608 0.832,1.221 1.222,1.848 0.292,0.472 0.704,0.878 1.006,1.346 0.908,1.411 2.072,2.646 3.176,3.92 1.288,1.485 2.822,2.76 4.433,3.964 1.557,1.163 3.053,2.386 4.47,3.68 1.843,1.685 3.607,3.434 5.203,5.313 1.002,1.179 1.965,2.397 2.749,3.702 0.437,0.727 0.997,1.408 1.255,2.246 0.27,0.88 0.645,1.727 1.004,2.576 0.615,1.456 1.059,2.946 1.24,4.549 0.169,1.499 0.149,3.002 -0.071,4.51 -0.204,1.398 -0.664,2.783 -1.316,4.14 -0.537,1.119 -1.214,2.181 -1.793,3.28 -0.381,0.723 -0.991,1.341 -1.538,1.979 -0.765,0.894 -1.523,1.8 -2.415,2.605 -1.366,1.235 -2.865,2.339 -4.327,3.48 C 7.713,-4.399 6.21,-3.384 4.663,-2.45 3.251,-1.599 1.884,-0.637 0,0"
             style="fill:#94c11f;fill-opacity:1;fill-rule:nonzero;stroke:none"
             id="path398" /></g><g
           id="g400"
           transform="translate(356.78,255.6184)"><path
             d="m 0,0 c -0.956,0.249 -1.95,1.017 -3.018,1.644 -1.138,0.668 -2.331,1.12 -3.612,1.37 -0.353,0.069 -0.698,0.147 -1.041,0.276 -3.349,1.265 -6.736,1.739 -10.087,1.117 -1.787,-0.332 -3.215,-1.221 -4.351,-2.475 -0.569,-0.627 -0.801,-1.421 -1.367,-2.028 -0.666,-0.714 -0.742,-1.627 -0.847,-2.534 -0.008,-0.064 -0.005,-0.133 -0.029,-0.19 -0.578,-1.344 -0.483,-2.819 -0.55,-4.266 -0.123,-2.67 0.593,-5.299 1.426,-7.925 0.376,-1.183 0.883,-2.337 1.354,-3.5 0.669,-1.657 1.661,-3.202 2.372,-4.837 0.879,-2.02 1.441,-4.072 1.557,-6.163 0.077,-1.396 -0.043,-2.77 -0.243,-4.129 -0.013,-0.089 -0.063,-0.17 -0.096,-0.255 -0.448,-1.135 -0.941,-2.255 -1.331,-3.411 -0.354,-1.048 -1.042,-1.903 -1.638,-2.814 -0.744,-1.138 -1.601,-2.209 -2.558,-3.196 -0.902,-0.93 -1.762,-1.895 -2.748,-2.764 -1.873,-1.652 -3.874,-3.18 -5.892,-4.687 -1.192,-0.89 -2.409,-1.755 -3.579,-2.668 -1.429,-1.115 -2.705,-2.349 -3.72,-3.793 -0.343,-0.488 -0.736,-0.945 -1.106,-1.416 -0.024,-0.03 -0.064,-0.055 -0.073,-0.09 -0.282,-1.068 -1.177,-1.844 -1.466,-2.917 -0.168,-0.625 -0.462,-1.213 -0.702,-1.816 -0.252,-0.63 -0.49,-1.254 -0.511,-1.965 -0.014,-0.473 -0.333,-0.88 -0.419,-1.361 -0.388,-2.178 -0.477,-4.393 0.086,-6.638 0.494,-1.973 1.435,-3.846 2.919,-5.502 1.184,-1.322 2.577,-2.443 4.141,-3.418 1.049,-0.654 2.163,-1.196 3.235,-1.803 0.877,-0.497 1.879,-0.821 2.901,-1.039 1.166,-0.249 2.326,-0.403 3.496,-0.481 1.158,-0.077 2.248,0.122 3.3,0.39 2.139,0.543 4,1.518 5.554,2.85 1.272,1.09 2.403,2.303 3.445,3.587 0.632,0.779 1.21,1.601 1.672,2.451 0.541,0.999 1.259,1.899 1.662,2.987 1.277,3.445 2.673,6.846 4.017,10.266 0.109,0.277 0.258,0.526 0.456,0.753 0.186,0.215 0.314,0.462 0.434,0.719 0.494,1.062 1.12,2.056 1.791,3.025 0.421,0.608 0.832,1.221 1.222,1.848 0.292,0.472 0.704,0.878 1.006,1.346 0.908,1.411 2.072,2.646 3.176,3.92 1.288,1.485 2.822,2.76 4.433,3.964 1.557,1.163 3.053,2.386 4.47,3.68 1.843,1.685 3.607,3.434 5.203,5.313 1.002,1.179 1.965,2.397 2.749,3.702 0.437,0.727 0.997,1.408 1.255,2.246 0.27,0.88 0.645,1.727 1.004,2.576 0.615,1.456 1.059,2.946 1.24,4.549 0.169,1.499 0.149,3.002 -0.071,4.51 -0.204,1.398 -0.664,2.783 -1.316,4.14 -0.537,1.119 -1.214,2.181 -1.793,3.28 -0.381,0.723 -0.991,1.341 -1.538,1.979 -0.765,0.894 -1.523,1.8 -2.415,2.605 -1.366,1.235 -2.865,2.339 -4.327,3.48 C 7.713,-4.399 6.21,-3.384 4.663,-2.45 3.251,-1.599 1.884,-0.637 0,0 Z"
             style="fill:none;stroke:#ffffff;stroke-width:2;stroke-linecap:butt;stroke-linejoin:miter;stroke-miterlimit:10;stroke-dasharray:none;stroke-opacity:1"
             id="path402" /></g></g></g></g></svg>
